<?xml version="1.0" standalone="no"?>
<!DOCTYPE svg PUBLIC "-//W3C//DTD SVG 20010904//EN"
 "http://www.w3.org/TR/2001/REC-SVG-20010904/DTD/svg10.dtd">
<svg version="1.0" xmlns="http://www.w3.org/2000/svg"
 width="512.000000pt" height="512.000000pt" viewBox="0 0 512.000000 512.000000"
 preserveAspectRatio="xMidYMid meet">

<g transform="translate(0.000000,512.000000) scale(0.100000,-0.100000)"
fill="#000000" stroke="none">
<path d="M1040 5105 c-261 -43 -487 -160 -676 -349 -151 -150 -246 -307 -309
-506 -147 -470 15 -1008 397 -1314 180 -144 376 -232 593 -266 88 -14 291 -14
377 0 256 40 492 162 679 349 237 237 360 530 360 860 0 188 -23 311 -86 469
-147 364 -459 636 -842 733 -145 37 -354 47 -493 24z m454 -209 c492 -128 818
-592 775 -1103 -30 -359 -259 -689 -584 -844 -450 -214 -987 -83 -1285 312
-237 316 -275 739 -98 1094 98 195 268 365 463 463 91 45 221 88 310 102 107
16 308 5 419 -24z"/>
<path d="M1173 4626 c-24 -20 -29 -34 -33 -87 l-5 -62 -40 -12 c-153 -45 -255
-164 -263 -307 -6 -92 17 -154 80 -223 68 -74 144 -111 288 -136 170 -31 231
-67 246 -143 12 -66 -42 -137 -125 -165 -52 -17 -150 -13 -196 8 -22 10 -60
39 -85 65 -39 40 -49 46 -86 46 -35 0 -47 -5 -68 -31 -14 -17 -26 -43 -26 -58
0 -32 41 -94 91 -135 38 -33 145 -86 172 -86 14 0 17 -9 17 -59 0 -76 28 -111
89 -111 63 0 93 33 99 107 l4 60 52 16 c71 23 152 82 193 141 93 136 77 293
-43 406 -77 72 -141 99 -302 125 -144 24 -212 73 -212 156 0 87 93 154 215
154 82 -1 118 -16 185 -80 51 -48 79 -58 120 -43 54 18 75 80 46 137 -29 56
-133 133 -209 156 -41 12 -42 13 -48 66 -7 70 -15 87 -50 104 -40 21 -74 18
-106 -9z"/>
<path d="M3723 5109 c-523 -68 -956 -484 -1049 -1009 -19 -112 -19 -322 1
-430 70 -376 310 -702 642 -872 190 -98 357 -139 568 -139 265 1 470 62 688
208 182 120 316 275 417 478 65 131 93 220 115 365 102 663 -366 1295 -1035
1396 -102 15 -246 16 -347 3z m333 -194 c214 -37 389 -124 543 -270 93 -89
150 -163 207 -269 156 -294 164 -645 19 -942 -277 -570 -990 -763 -1519 -410
-93 62 -223 192 -286 285 -160 238 -214 561 -141 845 24 92 92 239 150 324
223 330 634 504 1027 437z"/>
<path d="M3935 4536 c-194 -45 -372 -178 -457 -342 l-33 -64 -118 0 c-157 0
-197 -20 -197 -100 0 -22 9 -41 29 -61 29 -28 32 -29 135 -29 l106 0 0 -50 0
-50 -106 0 c-103 0 -106 -1 -135 -29 -32 -33 -37 -67 -14 -110 20 -40 61 -51
186 -51 l109 0 21 -42 c106 -211 303 -348 544 -378 178 -22 408 37 440 113 16
39 11 73 -18 104 -31 35 -67 37 -135 9 -159 -67 -343 -51 -488 42 -54 35 -144
124 -144 143 0 4 88 9 196 11 l196 3 30 34 c25 28 29 39 24 70 -3 21 -16 45
-31 59 -25 21 -32 22 -256 22 l-229 0 0 50 0 50 229 0 c224 0 231 1 256 23 15
13 28 37 31 58 5 31 1 42 -24 70 l-30 34 -199 5 -198 5 64 68 c73 76 163 128
258 148 86 17 214 7 297 -25 37 -14 81 -26 96 -26 33 0 80 41 81 72 4 75 -25
103 -141 142 -104 35 -276 45 -375 22z"/>
<path d="M1129 2458 c-516 -37 -960 -414 -1090 -925 -158 -622 193 -1264 803
-1468 442 -147 926 -35 1257 294 180 178 303 414 347 661 19 112 19 322 -1
430 -70 380 -311 703 -651 877 -215 110 -413 149 -665 131z m306 -204 c108
-21 237 -71 337 -130 161 -97 330 -286 408 -457 202 -445 67 -974 -321 -1267
-354 -266 -834 -278 -1209 -31 -75 49 -200 170 -259 250 -269 364 -265 876 9
1240 241 319 636 470 1035 395z"/>
<path d="M767 1919 c-27 -16 -50 -68 -42 -97 3 -14 74 -120 156 -235 83 -116
153 -216 156 -224 4 -10 -14 -13 -86 -13 -84 0 -94 -2 -116 -25 -18 -17 -25
-35 -25 -62 0 -82 43 -103 218 -103 l112 0 0 -70 0 -70 -139 0 c-136 0 -139 0
-165 -26 -35 -35 -36 -92 -2 -131 24 -28 25 -28 165 -31 l141 -4 0 -120 c0
-119 0 -120 29 -149 33 -32 67 -37 110 -14 40 20 51 61 51 181 l0 104 119 0
c65 0 132 5 150 11 64 23 79 116 24 159 -23 18 -40 20 -159 20 l-134 0 0 69 0
69 136 4 136 3 29 33 c39 43 39 84 0 123 -28 28 -33 29 -120 29 -50 0 -91 2
-91 5 0 2 64 94 142 202 170 238 178 251 178 285 0 42 -45 88 -87 88 -19 0
-43 -5 -53 -10 -11 -6 -97 -118 -191 -250 -94 -132 -174 -240 -178 -240 -3 1
-78 102 -166 226 -88 124 -171 236 -184 250 -25 26 -81 32 -114 13z"/>
<path d="M3790 2459 c-433 -33 -812 -291 -1007 -684 -84 -168 -124 -340 -124
-535 -1 -305 85 -549 277 -788 239 -298 627 -470 1014 -448 194 11 381 64 535
152 690 393 844 1291 324 1894 -191 222 -511 386 -792 405 -45 3 -93 7 -107 9
-14 1 -68 -1 -120 -5z m299 -205 c382 -68 709 -376 807 -763 174 -680 -368
-1339 -1069 -1298 -514 30 -932 435 -976 945 -21 238 41 482 170 674 62 92
192 222 284 283 238 159 492 210 784 159z"/>
<path d="M3770 1904 c-198 -53 -328 -254 -285 -441 8 -35 23 -80 34 -101 10
-20 22 -47 25 -59 7 -22 5 -23 -44 -23 -46 0 -56 -4 -86 -34 -37 -37 -42 -62
-19 -106 21 -41 43 -50 124 -50 83 0 84 -1 52 -110 -27 -95 -46 -136 -101
-221 -61 -92 -66 -135 -21 -180 39 -38 80 -38 163 1 91 43 166 43 289 0 86
-30 101 -32 195 -28 93 3 107 6 177 41 42 21 85 49 97 64 30 38 26 88 -9 124
-36 36 -77 38 -129 6 -90 -57 -174 -62 -302 -17 -61 21 -104 30 -151 30 l-67
0 29 84 c16 46 32 111 35 145 l7 61 114 0 c107 0 115 1 138 24 32 32 40 69 25
107 -19 45 -44 54 -178 59 l-124 5 -43 105 c-52 123 -56 174 -22 235 32 57 91
95 160 102 48 5 64 2 110 -21 35 -17 64 -41 83 -67 15 -22 37 -47 48 -55 46
-32 117 -5 136 51 10 31 9 41 -10 80 -12 24 -46 66 -75 93 -109 100 -238 133
-375 96z"/>
</g>
</svg>
