<?xml version="1.0" standalone="no"?>
<!DOCTYPE svg PUBLIC "-//W3C//DTD SVG 20010904//EN"
 "http://www.w3.org/TR/2001/REC-SVG-20010904/DTD/svg10.dtd">
<svg version="1.0" xmlns="http://www.w3.org/2000/svg"
 width="512.000000pt" height="512.000000pt" viewBox="0 0 512.000000 512.000000"
 preserveAspectRatio="xMidYMid meet">

<g transform="translate(0.000000,512.000000) scale(0.100000,-0.100000)"
fill="#000000" stroke="none">
<path d="M4206 3974 c-170 -31 -183 -36 -851 -334 -283 -127 -520 -230 -527
-230 -6 0 -268 79 -582 175 -314 96 -602 181 -641 190 -83 20 -248 22 -325 6
-87 -19 -261 -109 -287 -150 -30 -44 -29 -94 2 -147 28 -48 68 -74 538 -359
153 -92 275 -171 270 -175 -15 -13 -823 -370 -839 -370 -25 0 -50 17 -284 190
-289 215 -289 215 -410 215 -83 -1 -101 -4 -146 -27 -87 -46 -131 -118 -122
-202 5 -39 353 -835 404 -922 33 -57 123 -120 208 -147 62 -19 92 -22 236 -21
343 1 727 110 1397 397 196 83 222 92 218 73 -32 -136 -245 -1312 -245 -1353
0 -99 52 -163 133 -163 59 0 243 82 318 142 23 18 69 67 102 108 72 91 111
171 548 1119 l324 704 115 55 c708 336 1139 575 1273 705 53 52 87 113 87 157
0 107 -166 258 -356 324 -158 55 -384 71 -558 40z m414 -210 c87 -22 196 -74
245 -118 l40 -36 -25 -20 c-153 -126 -555 -346 -1142 -625 l-246 -118 -398
-861 c-219 -473 -408 -878 -419 -898 -58 -102 -150 -194 -212 -213 -17 -5 -23
-2 -23 10 0 9 67 375 150 812 82 438 148 798 146 800 -2 2 -111 -44 -242 -103
-587 -262 -914 -386 -1219 -463 -329 -83 -578 -88 -673 -13 -32 25 -396 842
-382 856 6 6 31 11 55 10 40 -1 60 -13 237 -145 282 -210 338 -245 402 -259
44 -9 66 -8 108 3 29 8 706 306 1503 662 798 356 1484 660 1525 675 68 25 177
52 255 64 58 8 250 -4 315 -20z m-3068 -188 c66 -14 972 -287 982 -297 5 -4
-473 -219 -488 -219 -19 0 -806 484 -799 491 20 18 104 38 165 39 36 0 99 -6
140 -14z"/>
</g>
</svg>
