<svg id="svg" version="1.1" xmlns="http://www.w3.org/2000/svg" xmlns:xlink="http://www.w3.org/1999/xlink" width="400" height="400" viewBox="0, 0, 400,400"><g id="svgg"><path id="path0" d="M188.358 0.176 C 188.261 0.272,187.142 0.394,185.872 0.445 C 184.601 0.496,183.470 0.687,183.357 0.869 C 183.245 1.051,182.454 1.200,181.600 1.200 C 180.746 1.200,179.948 1.361,179.826 1.558 C 179.705 1.755,178.929 2.018,178.103 2.142 C 174.588 2.673,173.600 2.905,173.600 3.200 C 173.600 3.372,173.015 3.614,172.300 3.737 C 169.288 4.258,168.400 4.510,168.400 4.845 C 168.400 5.040,168.128 5.200,167.795 5.200 C 167.462 5.200,166.832 5.380,166.395 5.600 C 165.958 5.820,165.242 6.180,164.805 6.400 C 164.368 6.620,163.753 6.800,163.439 6.800 C 163.124 6.800,162.807 6.978,162.733 7.197 C 162.660 7.415,162.118 7.633,161.529 7.681 C 160.940 7.730,160.533 7.892,160.626 8.042 C 160.767 8.270,159.318 8.851,158.320 8.967 C 158.166 8.985,157.829 9.211,157.571 9.469 C 157.313 9.727,156.809 9.833,156.451 9.705 C 156.093 9.577,155.932 9.618,156.094 9.797 C 156.404 10.139,154.668 11.200,153.797 11.200 C 153.516 11.200,153.178 11.481,153.046 11.825 C 152.914 12.169,152.624 12.339,152.403 12.202 C 152.181 12.065,152.000 12.143,152.000 12.376 C 152.000 12.609,151.752 12.800,151.449 12.800 C 151.146 12.800,150.676 13.068,150.404 13.396 C 150.132 13.723,149.745 13.890,149.545 13.766 C 149.344 13.642,149.230 13.779,149.290 14.070 C 149.351 14.362,149.175 14.555,148.900 14.500 C 148.625 14.445,148.400 14.580,148.400 14.800 C 148.400 15.020,148.161 15.200,147.868 15.200 C 147.575 15.200,146.547 15.907,145.583 16.771 C 144.618 17.635,143.702 18.263,143.547 18.167 C 143.391 18.071,142.909 18.444,142.474 18.996 C 142.040 19.548,141.486 20.000,141.242 20.000 C 140.999 20.000,140.800 20.180,140.800 20.400 C 140.800 20.620,140.620 20.800,140.400 20.800 C 140.180 20.800,138.605 22.150,136.900 23.800 C 132.288 28.264,131.601 28.973,131.600 29.273 C 131.600 29.423,131.240 29.660,130.800 29.800 C 130.360 29.940,130.000 30.246,130.000 30.480 C 130.000 30.994,128.441 32.400,127.872 32.400 C 127.649 32.400,127.587 32.520,127.734 32.668 C 127.881 32.815,127.703 33.265,127.339 33.668 C 126.974 34.070,126.818 34.400,126.992 34.400 C 127.166 34.400,126.844 34.765,126.278 35.210 C 125.711 35.656,125.121 36.418,124.968 36.902 C 124.814 37.387,124.154 38.283,123.502 38.892 C 122.849 39.501,122.434 40.000,122.578 40.000 C 122.797 40.000,121.069 42.541,120.402 43.200 C 120.291 43.310,120.161 43.607,120.113 43.860 C 120.065 44.114,119.480 45.130,118.813 46.118 C 118.146 47.107,117.600 48.093,117.600 48.309 C 117.600 48.525,117.311 48.942,116.958 49.235 C 116.348 49.741,115.601 51.194,115.371 52.319 C 115.313 52.605,114.711 53.988,114.033 55.394 C 113.355 56.800,112.800 58.220,112.800 58.551 C 112.800 58.882,112.620 59.264,112.400 59.400 C 112.180 59.536,112.000 59.976,112.000 60.378 C 112.000 60.780,111.731 61.624,111.402 62.254 C 111.074 62.884,110.804 63.811,110.802 64.313 C 110.801 64.814,110.519 65.333,110.174 65.465 C 109.719 65.640,109.599 66.080,109.734 67.081 C 109.864 68.046,109.746 68.523,109.337 68.680 C 109.016 68.803,108.838 69.121,108.940 69.388 C 109.042 69.654,108.972 70.121,108.784 70.426 C 108.574 70.766,108.627 71.096,108.921 71.283 C 109.287 71.516,109.282 71.589,108.900 71.594 C 108.584 71.598,108.400 72.190,108.400 73.200 C 108.400 74.080,108.220 74.800,108.000 74.800 C 107.777 74.800,107.600 75.875,107.600 77.224 C 107.600 78.557,107.454 79.557,107.276 79.447 C 107.098 79.337,106.904 80.899,106.846 82.918 C 106.787 84.973,106.533 86.846,106.270 87.172 C 105.904 87.625,105.911 87.687,106.300 87.453 C 106.575 87.288,106.800 87.343,106.800 87.576 C 106.800 87.809,106.639 88.000,106.443 88.000 C 105.925 88.000,105.867 97.870,106.383 98.189 C 106.629 98.342,106.800 100.147,106.800 102.600 C 106.800 104.937,106.975 106.861,107.200 107.000 C 107.420 107.136,107.600 108.227,107.600 109.424 C 107.600 110.621,107.742 111.600,107.915 111.600 C 108.088 111.600,108.257 112.005,108.291 112.500 C 108.325 112.995,108.484 114.210,108.645 115.200 C 108.805 116.190,108.906 117.135,108.868 117.300 C 108.831 117.465,108.942 117.600,109.115 117.600 C 109.419 117.600,109.611 118.457,109.711 120.274 C 109.738 120.755,109.885 121.071,110.038 120.976 C 110.444 120.726,110.787 121.831,110.601 122.793 C 110.514 123.248,110.586 123.532,110.762 123.424 C 111.088 123.222,112.000 125.791,112.000 126.913 C 112.000 127.254,112.188 127.596,112.418 127.673 C 112.648 127.749,112.866 128.214,112.903 128.706 C 112.940 129.198,113.112 129.600,113.285 129.600 C 113.458 129.600,113.600 129.960,113.600 130.400 C 113.600 130.840,113.744 131.200,113.920 131.200 C 114.095 131.200,114.481 131.875,114.776 132.700 C 115.071 133.525,115.424 134.290,115.561 134.400 C 115.985 134.743,117.806 138.939,117.690 139.309 C 117.630 139.502,117.744 139.558,117.944 139.435 C 118.144 139.311,118.530 139.748,118.802 140.405 C 119.074 141.062,119.455 141.600,119.649 141.600 C 119.842 141.600,120.000 141.878,120.000 142.217 C 120.000 142.556,120.185 143.051,120.411 143.317 C 120.636 143.583,121.398 144.700,122.103 145.800 C 122.808 146.900,123.703 148.149,124.092 148.575 C 124.482 149.002,124.800 149.508,124.800 149.699 C 124.800 149.891,124.984 149.933,125.210 149.794 C 125.435 149.655,125.587 149.689,125.546 149.870 C 125.413 150.468,126.139 151.782,127.276 153.000 C 127.892 153.660,128.397 154.335,128.398 154.500 C 128.399 154.665,128.670 154.800,129.000 154.800 C 129.330 154.800,129.555 154.942,129.500 155.117 C 129.445 155.291,130.428 156.438,131.684 157.666 C 132.940 158.894,133.855 160.012,133.717 160.150 C 133.579 160.287,133.658 160.400,133.893 160.400 C 134.127 160.400,135.238 161.300,136.361 162.400 C 137.485 163.500,138.594 164.400,138.826 164.400 C 139.057 164.400,139.153 164.553,139.037 164.740 C 138.922 164.927,139.265 165.314,139.800 165.600 C 140.335 165.886,140.661 166.301,140.525 166.522 C 140.382 166.752,140.478 166.799,140.748 166.632 C 141.027 166.460,141.791 166.911,142.610 167.730 C 143.375 168.495,144.006 169.003,144.013 168.860 C 144.020 168.717,144.290 168.949,144.613 169.376 C 144.936 169.804,145.200 170.030,145.200 169.879 C 145.200 169.728,146.025 170.235,147.034 171.005 C 148.043 171.775,149.009 172.318,149.181 172.212 C 149.352 172.106,149.815 172.375,150.209 172.809 C 150.602 173.244,151.067 173.600,151.242 173.600 C 151.417 173.600,152.360 174.140,153.338 174.800 C 154.316 175.460,155.416 176.000,155.782 176.000 C 156.148 176.000,156.336 176.180,156.200 176.400 C 156.064 176.620,156.313 176.800,156.753 176.800 C 157.193 176.800,157.664 176.980,157.800 177.200 C 157.936 177.420,158.497 177.600,159.047 177.600 C 159.597 177.600,159.956 177.747,159.845 177.927 C 159.734 178.107,160.263 178.479,161.021 178.753 C 161.780 179.027,162.400 179.381,162.400 179.539 C 162.400 179.696,162.895 179.866,163.500 179.916 C 164.105 179.966,164.660 180.185,164.733 180.403 C 164.807 180.622,165.392 180.800,166.033 180.800 C 166.675 180.800,167.200 180.980,167.200 181.200 C 167.200 181.420,167.560 181.600,168.000 181.600 C 168.440 181.600,168.800 181.780,168.800 182.000 C 168.800 182.220,169.329 182.400,169.976 182.400 C 170.623 182.400,171.264 182.580,171.400 182.800 C 171.536 183.020,172.166 183.200,172.800 183.200 C 173.434 183.200,174.064 183.380,174.200 183.600 C 174.336 183.820,174.966 184.000,175.600 184.000 C 176.234 184.000,176.864 184.180,177.000 184.400 C 177.136 184.620,177.856 184.800,178.600 184.800 C 179.344 184.800,180.051 184.958,180.170 185.151 C 180.289 185.345,181.425 185.597,182.694 185.712 C 183.962 185.827,185.443 186.025,185.983 186.153 C 186.524 186.281,187.559 186.426,188.283 186.475 C 189.008 186.524,189.600 186.666,189.600 186.791 C 189.600 186.916,191.895 187.014,194.700 187.009 L 199.800 187.000 199.901 93.500 L 200.002 0.000 194.268 0.000 C 191.114 0.000,188.454 0.079,188.358 0.176 M159.356 199.190 C 159.160 199.379,157.020 199.582,154.600 199.642 C 152.180 199.703,150.012 199.889,149.783 200.056 C 149.554 200.223,148.524 200.424,147.495 200.501 C 146.467 200.579,145.499 200.768,145.346 200.921 C 145.192 201.074,144.197 201.200,143.133 201.200 C 142.070 201.200,141.200 201.380,141.200 201.600 C 141.200 201.820,140.581 202.000,139.824 202.000 C 139.067 202.000,138.336 202.180,138.200 202.400 C 138.064 202.620,137.279 202.800,136.456 202.800 C 135.633 202.800,134.789 202.971,134.579 203.181 C 134.370 203.390,133.535 203.606,132.725 203.661 C 131.915 203.715,131.341 203.904,131.449 204.080 C 131.618 204.352,130.050 204.597,129.100 204.447 C 128.935 204.421,128.800 204.580,128.800 204.800 C 128.800 205.020,128.440 205.200,128.000 205.200 C 127.560 205.200,127.200 205.380,127.200 205.600 C 127.200 205.820,126.660 206.000,126.000 206.000 C 125.340 206.000,124.800 206.180,124.800 206.400 C 124.800 206.620,124.361 206.800,123.824 206.800 C 123.287 206.800,122.736 206.980,122.600 207.200 C 122.464 207.420,121.813 207.600,121.153 207.600 C 120.455 207.600,120.056 207.767,120.200 208.000 C 120.338 208.223,120.031 208.400,119.504 208.400 C 118.985 208.400,118.344 208.616,118.080 208.880 C 117.816 209.144,117.600 209.221,117.600 209.051 C 117.600 208.882,117.325 209.018,116.988 209.354 C 116.652 209.691,116.112 209.864,115.788 209.740 C 115.416 209.597,115.200 209.759,115.200 210.181 C 115.200 210.568,115.014 210.732,114.755 210.572 C 114.511 210.421,114.196 210.456,114.055 210.649 C 113.614 211.256,110.885 212.500,110.507 212.266 C 110.308 212.143,109.893 212.393,109.585 212.821 C 109.276 213.250,108.703 213.600,108.312 213.600 C 107.920 213.600,107.600 213.780,107.600 214.000 C 107.600 214.220,107.387 214.400,107.126 214.400 C 106.865 214.400,106.280 214.731,105.826 215.135 C 105.372 215.540,104.370 216.117,103.600 216.418 C 102.830 216.720,101.960 217.200,101.668 217.487 C 101.375 217.773,100.942 217.888,100.706 217.742 C 100.464 217.592,100.392 217.663,100.540 217.904 C 100.688 218.143,100.275 218.565,99.602 218.863 C 98.941 219.156,98.400 219.531,98.400 219.698 C 98.400 219.864,98.212 220.000,97.983 220.000 C 97.552 220.000,97.337 220.149,95.532 221.689 C 93.225 223.657,92.782 224.000,92.542 224.000 C 92.406 224.000,91.958 224.388,91.547 224.861 C 91.136 225.335,90.800 225.571,90.800 225.386 C 90.800 225.201,90.462 225.398,90.049 225.825 C 88.736 227.181,87.675 227.942,87.434 227.700 C 87.305 227.572,87.200 227.668,87.200 227.913 C 87.200 228.537,84.721 230.796,84.033 230.798 C 83.722 230.799,83.578 230.911,83.714 231.048 C 84.069 231.403,82.974 232.400,82.229 232.400 C 81.883 232.400,81.600 232.602,81.600 232.850 C 81.600 233.097,80.655 234.215,79.500 235.334 C 78.345 236.454,77.458 237.459,77.530 237.569 C 77.601 237.679,77.331 237.898,76.930 238.056 C 76.528 238.214,76.342 238.356,76.516 238.372 C 76.904 238.406,76.359 239.075,73.870 241.624 C 72.809 242.711,72.044 243.600,72.170 243.600 C 72.297 243.600,72.040 243.960,71.600 244.400 C 71.160 244.840,70.800 245.368,70.800 245.573 C 70.800 245.778,70.427 246.064,69.971 246.209 C 69.501 246.358,69.230 246.702,69.346 247.003 C 69.458 247.295,69.279 247.637,68.949 247.764 C 68.619 247.891,68.462 248.177,68.600 248.400 C 68.738 248.623,68.569 248.914,68.225 249.046 C 67.881 249.178,67.600 249.456,67.600 249.664 C 67.600 249.873,67.061 250.619,66.402 251.322 C 65.743 252.025,65.203 252.825,65.202 253.100 C 65.201 253.375,65.041 253.600,64.847 253.600 C 64.556 253.600,64.170 254.474,64.043 255.417 C 64.012 255.652,63.345 256.470,62.095 257.806 C 61.598 258.338,61.222 258.914,61.260 259.086 C 61.407 259.751,60.381 261.636,60.001 261.400 C 59.780 261.264,59.600 261.523,59.600 261.976 C 59.600 262.429,59.420 262.800,59.200 262.800 C 58.980 262.800,58.819 262.935,58.843 263.100 C 58.867 263.265,58.768 263.760,58.623 264.200 C 58.478 264.640,58.384 265.160,58.414 265.355 C 58.444 265.551,58.318 265.821,58.134 265.955 C 57.595 266.350,56.800 267.937,56.800 268.618 C 56.800 268.964,56.620 269.136,56.400 269.000 C 56.180 268.864,56.000 269.033,56.000 269.376 C 56.000 269.719,55.820 270.000,55.600 270.000 C 55.380 270.000,55.200 270.540,55.200 271.200 C 55.200 271.860,55.020 272.400,54.800 272.400 C 54.580 272.400,54.400 272.760,54.400 273.200 C 54.400 273.640,54.220 274.000,54.000 274.000 C 53.780 274.000,53.600 274.450,53.600 275.000 C 53.600 275.550,53.401 276.000,53.157 276.000 C 52.914 276.000,52.809 276.248,52.926 276.550 C 53.042 276.853,52.881 277.593,52.568 278.196 C 52.256 278.798,52.000 279.551,52.000 279.869 C 52.000 280.187,51.850 280.355,51.667 280.241 C 51.483 280.128,51.333 280.294,51.333 280.610 C 51.333 281.328,50.443 284.366,49.961 285.295 C 49.762 285.677,49.600 286.532,49.600 287.195 C 49.600 287.858,49.390 288.400,49.133 288.400 C 48.877 288.400,48.770 288.504,48.897 288.630 C 49.023 288.757,48.949 289.432,48.732 290.130 C 48.332 291.417,48.144 292.413,48.051 293.724 C 48.023 294.122,47.840 294.349,47.645 294.228 C 47.450 294.107,47.298 294.232,47.308 294.504 C 47.378 296.441,47.145 298.413,46.867 298.241 C 46.683 298.128,46.548 298.848,46.567 299.842 C 46.585 300.836,46.449 302.043,46.264 302.524 C 46.079 303.006,45.853 304.733,45.761 306.362 C 45.669 307.992,45.408 309.549,45.180 309.824 C 44.889 310.175,44.919 310.383,45.283 310.530 C 45.617 310.664,45.635 310.748,45.335 310.768 C 44.985 310.792,44.857 321.820,44.818 355.400 L 44.767 400.000 122.384 400.000 L 200.000 400.000 200.000 299.390 L 200.000 198.780 179.856 198.814 C 168.777 198.833,159.552 199.002,159.356 199.190 " stroke="none" fill="#04a4fc" fill-rule="evenodd"></path><path id="path1" d="M211.380 0.367 C 211.883 1.181,204.420 1.356,201.500 0.599 L 200.400 0.313 200.400 93.057 L 200.400 185.800 204.609 185.740 C 209.450 185.671,210.541 185.855,210.222 186.686 C 210.087 187.038,210.197 187.201,210.500 187.100 C 210.775 187.008,210.994 186.588,210.987 186.167 C 210.968 185.089,211.521 184.825,213.383 185.021 C 214.317 185.119,215.520 184.946,216.231 184.610 C 216.908 184.290,217.944 184.115,218.533 184.222 C 219.122 184.329,220.008 184.180,220.502 183.892 C 220.996 183.604,221.760 183.381,222.200 183.398 C 222.640 183.414,223.090 183.304,223.200 183.154 C 223.764 182.381,226.150 182.633,225.843 183.433 C 225.688 183.836,225.781 184.005,226.100 183.896 C 226.375 183.802,226.544 183.337,226.475 182.863 C 226.375 182.175,226.553 182.000,227.351 182.000 C 227.902 182.000,228.464 181.820,228.600 181.600 C 228.736 181.380,229.276 181.200,229.800 181.200 C 230.324 181.200,230.864 181.020,231.000 180.800 C 231.136 180.580,231.597 180.400,232.024 180.400 C 232.451 180.400,232.800 180.220,232.800 180.000 C 232.800 179.780,233.340 179.600,234.000 179.600 C 234.660 179.600,235.200 179.420,235.200 179.200 C 235.200 178.980,235.465 178.800,235.788 178.800 C 236.111 178.800,237.017 178.440,237.800 178.000 C 238.583 177.560,239.489 177.200,239.812 177.200 C 240.135 177.200,240.401 177.065,240.403 176.900 C 240.407 176.541,242.344 175.600,243.080 175.600 C 243.366 175.600,243.600 175.441,243.600 175.247 C 243.600 175.052,243.915 174.787,244.300 174.658 C 245.248 174.338,249.468 171.779,250.000 171.201 C 250.110 171.082,250.650 170.784,251.200 170.540 C 251.750 170.295,253.063 169.332,254.117 168.398 C 255.172 167.465,256.141 166.807,256.270 166.937 C 256.399 167.066,256.977 166.683,257.553 166.085 C 258.129 165.487,259.300 164.475,260.155 163.837 C 262.538 162.057,269.850 154.516,272.000 151.620 C 272.550 150.879,273.225 150.045,273.500 149.765 C 273.775 149.486,274.000 149.104,274.000 148.917 C 274.000 148.730,274.371 148.312,274.824 147.988 C 275.278 147.665,276.223 146.435,276.924 145.255 C 277.626 144.075,278.613 142.455,279.117 141.655 C 279.621 140.855,280.137 139.885,280.264 139.500 C 280.390 139.115,280.652 138.800,280.847 138.800 C 281.041 138.800,281.200 138.530,281.200 138.200 C 281.200 137.870,281.380 137.600,281.600 137.600 C 281.820 137.600,282.000 137.379,282.000 137.109 C 282.000 136.347,284.501 131.200,284.871 131.200 C 285.052 131.200,285.200 130.851,285.200 130.424 C 285.200 129.997,285.372 129.541,285.583 129.411 C 285.793 129.281,285.873 128.933,285.760 128.639 C 285.646 128.344,285.846 127.811,286.202 127.455 C 286.559 127.098,286.738 126.623,286.600 126.400 C 286.462 126.177,286.629 125.887,286.972 125.755 C 287.400 125.591,287.520 125.219,287.355 124.562 C 287.195 123.924,287.309 123.533,287.698 123.384 C 288.053 123.248,288.214 122.806,288.109 122.256 C 288.013 121.756,288.200 121.132,288.527 120.861 C 288.852 120.591,289.026 120.019,288.913 119.590 C 288.788 119.112,288.947 118.718,289.324 118.574 C 289.772 118.402,289.881 117.979,289.726 117.020 C 289.602 116.257,289.699 115.586,289.956 115.427 C 290.200 115.276,290.400 114.569,290.400 113.856 C 290.400 113.143,290.603 112.357,290.851 112.109 C 291.100 111.860,291.325 110.699,291.351 109.529 C 291.391 107.800,291.526 107.410,292.071 107.451 C 292.622 107.492,292.676 107.326,292.371 106.525 C 291.683 104.715,292.051 100.137,292.845 100.628 C 293.040 100.749,293.200 100.567,293.200 100.224 C 293.200 99.881,293.425 99.597,293.700 99.594 C 294.032 99.590,293.998 99.460,293.600 99.209 C 293.128 98.911,292.982 97.781,292.916 93.898 C 292.829 88.818,293.029 87.047,293.645 87.428 C 294.167 87.751,294.053 87.104,293.448 86.306 C 293.158 85.925,292.812 85.721,292.680 85.853 C 292.362 86.171,292.067 84.749,291.838 81.800 C 291.736 80.480,291.531 78.725,291.382 77.901 C 291.072 76.177,291.440 74.254,292.012 74.607 C 292.225 74.739,292.400 74.653,292.400 74.416 C 292.400 74.150,291.997 74.086,291.350 74.248 C 290.342 74.501,290.306 74.454,290.468 73.067 C 290.582 72.093,290.460 71.555,290.093 71.414 C 289.475 71.177,289.558 68.600,290.184 68.600 C 290.395 68.600,290.689 69.194,290.837 69.920 C 291.224 71.812,291.611 71.993,291.327 70.150 C 291.006 68.065,290.301 66.687,290.084 67.722 C 289.847 68.855,289.000 68.264,289.000 66.967 C 289.000 66.325,288.746 65.601,288.435 65.358 C 288.124 65.115,287.979 64.631,288.113 64.284 C 288.246 63.936,288.163 63.588,287.928 63.509 C 287.692 63.431,287.500 62.890,287.500 62.307 C 287.500 61.724,287.234 61.145,286.908 61.020 C 286.583 60.895,286.412 60.545,286.528 60.243 C 286.645 59.940,286.465 59.300,286.129 58.820 C 285.793 58.341,285.618 57.848,285.740 57.727 C 285.862 57.605,285.692 57.234,285.361 56.904 C 285.031 56.574,284.657 55.785,284.530 55.152 C 284.404 54.518,284.186 54.000,284.048 54.000 C 283.909 54.000,283.544 53.415,283.236 52.700 C 281.792 49.344,281.083 48.000,280.756 48.000 C 280.560 48.000,280.400 47.640,280.400 47.200 C 280.400 46.760,280.248 46.400,280.063 46.400 C 279.877 46.400,279.296 45.545,278.770 44.500 C 278.244 43.455,277.496 42.309,277.107 41.953 C 276.718 41.597,276.400 41.084,276.400 40.814 C 276.400 40.543,275.860 39.817,275.200 39.200 C 274.540 38.583,274.000 37.875,274.000 37.626 C 274.000 37.377,273.460 36.645,272.800 36.000 C 272.140 35.355,271.600 34.648,271.600 34.429 C 271.600 34.037,259.792 22.000,259.407 22.000 C 259.206 22.000,257.940 21.007,256.984 20.100 C 256.694 19.825,256.309 19.596,256.129 19.591 C 255.948 19.586,255.088 18.940,254.218 18.157 C 253.348 17.374,251.908 16.362,251.018 15.910 C 250.128 15.457,248.352 14.392,247.072 13.543 C 245.791 12.695,244.486 12.000,244.172 12.000 C 243.857 12.000,243.599 11.865,243.597 11.700 C 243.593 11.341,241.656 10.400,240.920 10.400 C 240.634 10.400,240.399 10.265,240.397 10.100 C 240.393 9.741,238.456 8.800,237.720 8.800 C 237.434 8.800,237.199 8.665,237.197 8.500 C 237.193 8.099,235.219 7.200,234.344 7.200 C 233.961 7.200,233.536 7.020,233.400 6.800 C 233.264 6.580,232.713 6.400,232.176 6.400 C 231.639 6.400,231.200 6.220,231.200 6.000 C 231.200 5.780,230.761 5.600,230.224 5.600 C 229.687 5.600,229.136 5.420,229.000 5.200 C 228.864 4.980,228.313 4.800,227.776 4.800 C 227.239 4.800,226.800 4.620,226.800 4.400 C 226.800 4.180,226.080 4.000,225.200 4.000 C 224.320 4.000,223.600 3.820,223.600 3.600 C 223.600 3.380,222.958 3.200,222.173 3.200 C 220.949 3.200,220.781 3.091,220.989 2.434 C 221.123 2.012,221.041 1.549,220.806 1.404 C 220.572 1.259,220.430 1.363,220.490 1.635 C 220.615 2.198,218.950 2.741,217.900 2.481 C 217.515 2.385,217.200 2.046,217.200 1.726 C 217.200 1.306,216.951 1.225,216.300 1.433 C 215.380 1.726,215.020 1.751,213.100 1.655 C 212.285 1.614,212.000 1.393,212.000 0.800 C 212.000 0.360,211.809 0.000,211.576 0.000 C 211.343 0.000,211.255 0.165,211.380 0.367 M133.600 26.279 L 132.200 27.716 133.900 26.425 C 134.835 25.714,135.600 25.058,135.600 24.966 C 135.600 24.501,134.858 24.988,133.600 26.279 M267.420 28.109 C 267.528 28.388,267.981 28.845,268.427 29.124 C 269.218 29.618,269.222 29.605,268.573 28.615 C 267.886 27.566,267.075 27.210,267.420 28.109 M272.828 33.400 C 272.828 33.620,273.086 34.250,273.400 34.800 C 273.714 35.350,273.972 35.620,273.972 35.400 C 273.972 35.180,273.714 34.550,273.400 34.000 C 273.086 33.450,272.828 33.180,272.828 33.400 M272.628 152.865 C 271.769 154.586,272.014 154.640,273.108 152.971 C 273.603 152.217,273.839 151.600,273.633 151.600 C 273.427 151.600,272.975 152.169,272.628 152.865 M241.167 199.747 C 240.706 200.155,232.165 200.383,217.100 200.391 L 200.400 200.400 200.400 300.200 L 200.400 400.000 277.000 400.000 L 353.600 400.000 353.613 360.100 C 353.627 318.295,353.712 311.077,354.217 308.838 C 354.455 307.784,354.410 307.547,354.018 307.789 C 352.919 308.468,352.359 305.571,353.263 303.883 C 353.716 303.036,353.733 303.035,354.059 303.809 C 354.371 304.548,354.387 304.550,354.297 303.838 C 354.243 303.419,353.869 303.027,353.463 302.968 C 352.184 302.781,351.851 301.794,352.232 299.318 C 352.387 298.311,352.576 298.091,353.115 298.293 C 353.720 298.520,353.734 298.469,353.235 297.856 C 352.790 297.309,352.600 297.272,352.335 297.681 C 351.809 298.495,351.257 297.339,351.357 295.635 C 351.404 294.844,351.194 293.949,350.890 293.640 C 350.586 293.333,350.425 292.748,350.531 292.341 C 350.638 291.934,350.562 291.500,350.362 291.377 C 350.163 291.254,350.000 290.569,350.000 289.856 C 350.000 289.143,349.792 288.352,349.539 288.099 C 349.285 287.845,349.093 287.089,349.112 286.419 C 349.131 285.748,348.979 285.200,348.773 285.200 C 348.568 285.200,348.400 284.660,348.400 284.000 C 348.400 283.340,348.220 282.800,348.000 282.800 C 347.780 282.800,347.600 282.350,347.600 281.800 C 347.600 281.250,347.400 280.800,347.155 280.800 C 346.887 280.800,346.780 280.320,346.885 279.600 C 347.006 278.781,346.893 278.400,346.531 278.400 C 346.239 278.400,346.000 278.051,346.000 277.624 C 346.000 277.197,345.820 276.736,345.600 276.600 C 345.380 276.464,345.200 276.029,345.200 275.633 C 345.200 275.236,344.682 273.852,344.049 272.556 C 339.060 262.344,338.161 260.571,337.864 260.354 C 337.536 260.114,336.719 258.805,336.146 257.600 C 335.605 256.463,331.860 251.000,331.530 250.867 C 331.349 250.793,331.200 250.558,331.200 250.343 C 331.200 250.013,329.060 247.019,328.381 246.400 C 328.260 246.290,327.732 245.570,327.207 244.800 C 325.314 242.022,310.824 227.400,309.965 227.400 C 309.806 227.400,309.120 226.905,308.441 226.300 C 307.762 225.695,307.052 225.200,306.863 225.200 C 306.674 225.200,305.954 224.660,305.263 224.000 C 304.572 223.340,303.826 222.800,303.604 222.800 C 303.382 222.800,303.200 222.620,303.200 222.400 C 303.200 222.180,302.996 222.000,302.747 222.000 C 302.498 222.000,302.003 221.683,301.647 221.294 C 301.291 220.906,300.305 220.231,299.456 219.794 C 298.607 219.358,297.823 218.775,297.713 218.500 C 297.604 218.225,297.202 218.000,296.819 218.000 C 296.437 218.000,295.802 217.644,295.409 217.209 C 295.015 216.775,294.536 216.516,294.344 216.635 C 294.152 216.754,293.882 216.559,293.746 216.202 C 293.609 215.846,293.257 215.646,292.963 215.759 C 292.670 215.871,292.108 215.567,291.715 215.082 C 291.322 214.597,290.820 214.187,290.600 214.170 C 289.519 214.089,287.630 213.074,287.862 212.699 C 288.013 212.456,287.933 212.394,287.675 212.554 C 287.428 212.706,286.466 212.464,285.538 212.016 C 284.609 211.567,283.614 211.200,283.325 211.200 C 283.036 211.200,282.799 211.065,282.797 210.900 C 282.793 210.541,280.856 209.600,280.120 209.600 C 279.834 209.600,279.600 209.420,279.600 209.200 C 279.600 208.980,279.060 208.800,278.400 208.800 C 277.740 208.800,277.200 208.620,277.200 208.400 C 277.200 208.180,276.750 208.000,276.200 208.000 C 275.650 208.000,275.200 207.820,275.200 207.600 C 275.200 207.380,274.761 207.200,274.224 207.200 C 273.687 207.200,273.136 207.020,273.000 206.800 C 272.864 206.580,272.313 206.400,271.776 206.400 C 271.239 206.400,270.800 206.220,270.800 206.000 C 270.800 205.780,270.249 205.600,269.576 205.600 C 268.863 205.600,268.456 205.433,268.600 205.200 C 268.751 204.955,268.130 204.800,267.000 204.800 C 265.870 204.800,265.249 204.645,265.400 204.400 C 265.549 204.158,265.004 204.000,264.024 204.000 C 263.131 204.000,262.400 203.832,262.400 203.627 C 262.400 203.421,261.866 203.269,261.214 203.287 C 260.561 203.306,259.796 203.139,259.514 202.916 C 259.231 202.694,258.316 202.491,257.480 202.467 C 255.850 202.420,255.077 202.122,255.367 201.653 C 255.466 201.493,255.362 201.100,255.136 200.781 C 254.792 200.296,254.759 200.308,254.933 200.856 C 255.083 201.330,254.828 201.574,254.012 201.738 C 252.699 202.000,250.000 201.634,250.000 201.194 C 250.000 201.028,248.685 200.926,247.077 200.966 C 245.469 201.007,243.626 200.825,242.980 200.561 L 241.807 200.081 242.803 199.895 C 243.685 199.730,243.658 199.703,242.567 199.654 C 241.888 199.625,241.258 199.666,241.167 199.747 M284.800 210.192 C 284.800 210.274,285.340 210.611,286.000 210.940 C 286.660 211.269,287.200 211.390,287.200 211.208 C 287.200 211.027,286.660 210.690,286.000 210.460 C 285.340 210.230,284.800 210.109,284.800 210.192 M315.970 230.912 C 316.503 231.510,317.101 232.000,317.298 232.000 C 317.686 232.000,317.072 231.350,315.798 230.412 C 315.213 229.981,315.258 230.114,315.970 230.912 M322.822 237.800 C 322.827 238.329,323.942 239.791,324.169 239.565 C 324.266 239.468,324.002 238.941,323.582 238.394 C 323.161 237.847,322.820 237.580,322.822 237.800 M354.702 310.200 C 354.807 310.750,354.962 311.200,355.047 311.200 C 355.131 311.200,355.200 310.750,355.200 310.200 C 355.200 309.650,355.045 309.200,354.855 309.200 C 354.666 309.200,354.597 309.650,354.702 310.200 " stroke="none" fill="#0484fc" fill-rule="evenodd"></path><path id="path2" d="M207.091 0.289 C 207.801 0.377,209.061 0.379,209.891 0.292 C 210.721 0.205,210.140 0.133,208.600 0.131 C 207.060 0.129,206.381 0.200,207.091 0.289 M213.453 0.886 C 213.716 1.311,216.299 1.287,216.565 0.857 C 216.681 0.668,215.985 0.527,215.018 0.543 C 214.051 0.559,213.346 0.713,213.453 0.886 M218.600 1.600 C 218.459 1.828,218.804 2.000,219.400 2.000 C 219.996 2.000,220.341 1.828,220.200 1.600 C 219.881 1.084,218.919 1.084,218.600 1.600 M222.000 2.400 C 222.000 2.620,222.371 2.800,222.824 2.800 C 223.277 2.800,223.536 2.620,223.400 2.400 C 223.264 2.180,222.893 2.000,222.576 2.000 C 222.259 2.000,222.000 2.180,222.000 2.400 M225.200 3.200 C 224.734 3.501,224.851 3.589,225.724 3.594 C 226.372 3.597,226.743 3.431,226.600 3.200 C 226.293 2.703,225.969 2.703,225.200 3.200 M227.800 4.000 C 227.936 4.220,228.317 4.400,228.647 4.400 C 228.977 4.400,229.136 4.220,229.000 4.000 C 228.864 3.780,228.483 3.600,228.153 3.600 C 227.823 3.600,227.664 3.780,227.800 4.000 M238.000 8.000 C 238.000 8.220,238.270 8.400,238.600 8.400 C 238.930 8.400,239.200 8.220,239.200 8.000 C 239.200 7.780,238.930 7.600,238.600 7.600 C 238.270 7.600,238.000 7.780,238.000 8.000 M239.600 8.800 C 239.600 9.020,239.870 9.200,240.200 9.200 C 240.530 9.200,240.800 9.020,240.800 8.800 C 240.800 8.580,240.530 8.400,240.200 8.400 C 239.870 8.400,239.600 8.580,239.600 8.800 M241.600 9.637 C 241.600 9.837,241.870 10.000,242.200 10.000 C 242.530 10.000,242.800 10.180,242.800 10.400 C 242.800 10.620,243.092 10.800,243.449 10.800 C 243.958 10.800,243.998 10.680,243.636 10.243 C 243.077 9.570,241.600 9.130,241.600 9.637 M260.764 22.347 C 262.174 23.699,263.409 24.724,263.508 24.625 C 263.738 24.396,260.061 20.881,259.000 20.316 C 258.560 20.081,259.354 20.996,260.764 22.347 M263.858 25.107 C 263.754 25.275,264.090 25.612,264.606 25.855 C 265.464 26.260,265.503 26.234,265.075 25.549 C 264.579 24.754,264.168 24.605,263.858 25.107 M270.800 32.120 C 270.800 32.553,272.355 33.996,272.523 33.720 C 272.630 33.544,272.286 33.077,271.759 32.681 C 271.231 32.286,270.800 32.034,270.800 32.120 M273.600 35.814 C 273.600 36.122,274.667 37.200,274.971 37.200 C 275.516 37.200,275.131 36.391,274.400 36.000 C 273.960 35.765,273.600 35.681,273.600 35.814 M277.867 41.467 C 277.741 41.592,277.908 41.965,278.238 42.295 C 278.568 42.625,278.941 42.792,279.067 42.667 C 279.192 42.541,279.025 42.168,278.695 41.838 C 278.365 41.508,277.992 41.341,277.867 41.467 M280.000 45.184 C 280.000 45.697,281.145 46.989,281.385 46.748 C 281.465 46.666,281.187 46.175,280.766 45.656 C 280.345 45.136,280.000 44.924,280.000 45.184 M282.133 48.571 C 282.385 49.105,282.655 49.478,282.732 49.401 C 282.981 49.153,282.358 47.600,282.011 47.600 C 281.826 47.600,281.881 48.037,282.133 48.571 M284.000 52.600 C 284.000 52.930,284.180 53.200,284.400 53.200 C 284.620 53.200,284.800 52.930,284.800 52.600 C 284.800 52.270,284.620 52.000,284.400 52.000 C 284.180 52.000,284.000 52.270,284.000 52.600 M286.400 57.600 C 286.400 58.347,286.507 58.453,286.880 58.080 C 287.253 57.707,287.253 57.493,286.880 57.120 C 286.507 56.747,286.400 56.853,286.400 57.600 M289.200 66.200 C 289.200 66.530,289.380 66.800,289.600 66.800 C 289.820 66.800,290.000 66.530,290.000 66.200 C 290.000 65.870,289.820 65.600,289.600 65.600 C 289.380 65.600,289.200 65.870,289.200 66.200 M290.000 69.376 C 290.000 69.693,290.180 70.064,290.400 70.200 C 290.620 70.336,290.800 70.077,290.800 69.624 C 290.800 69.171,290.620 68.800,290.400 68.800 C 290.180 68.800,290.000 69.059,290.000 69.376 M290.800 72.176 C 290.800 72.739,290.980 73.200,291.200 73.200 C 291.420 73.200,291.600 72.851,291.600 72.424 C 291.600 71.997,291.420 71.536,291.200 71.400 C 290.973 71.260,290.800 71.596,290.800 72.176 M291.606 75.900 C 291.603 76.835,291.780 77.600,292.000 77.600 C 292.510 77.600,292.510 75.590,292.000 74.800 C 291.716 74.361,291.611 74.655,291.606 75.900 M292.465 81.059 C 292.405 81.948,292.523 82.371,292.785 82.209 C 293.273 81.908,293.344 80.136,292.880 79.849 C 292.704 79.741,292.517 80.285,292.465 81.059 M293.200 93.400 C 293.200 97.387,293.334 99.165,293.621 98.987 C 294.129 98.673,294.056 88.082,293.543 87.765 C 293.354 87.648,293.200 90.184,293.200 93.400 M292.400 105.424 C 292.400 106.271,292.562 106.747,292.800 106.600 C 293.020 106.464,293.200 105.823,293.200 105.176 C 293.200 104.529,293.020 104.000,292.800 104.000 C 292.580 104.000,292.400 104.641,292.400 105.424 M291.600 110.624 C 291.600 111.471,291.762 111.947,292.000 111.800 C 292.220 111.664,292.400 111.023,292.400 110.376 C 292.400 109.729,292.220 109.200,292.000 109.200 C 291.780 109.200,291.600 109.841,291.600 110.624 M290.800 114.400 C 290.800 114.840,290.980 115.200,291.200 115.200 C 291.420 115.200,291.600 114.840,291.600 114.400 C 291.600 113.960,291.420 113.600,291.200 113.600 C 290.980 113.600,290.800 113.960,290.800 114.400 M290.013 117.500 C 290.025 118.542,290.056 118.560,290.600 117.841 C 291.178 117.077,291.073 116.400,290.376 116.400 C 290.169 116.400,290.006 116.895,290.013 117.500 M289.399 120.395 C 289.483 120.833,289.269 121.474,288.922 121.821 C 288.497 122.246,288.423 122.583,288.696 122.856 C 288.969 123.129,289.247 122.840,289.550 121.971 C 290.099 120.397,290.123 119.600,289.623 119.600 C 289.416 119.600,289.315 119.958,289.399 120.395 M287.017 126.772 C 286.744 127.214,287.375 127.692,287.744 127.322 C 288.125 126.942,288.054 126.400,287.624 126.400 C 287.417 126.400,287.144 126.568,287.017 126.772 M286.400 129.176 C 286.400 129.603,286.220 130.064,286.000 130.200 C 285.780 130.336,285.601 130.752,285.602 131.124 C 285.604 131.594,285.763 131.496,286.124 130.800 C 286.993 129.125,287.194 128.400,286.787 128.400 C 286.574 128.400,286.400 128.749,286.400 129.176 M278.896 143.195 C 278.171 144.355,278.289 144.511,279.200 143.600 C 280.048 142.752,280.193 142.400,279.696 142.400 C 279.529 142.400,279.169 142.758,278.896 143.195 M276.832 146.500 C 276.814 146.885,276.609 147.200,276.376 147.200 C 276.143 147.200,276.078 147.403,276.232 147.651 C 276.588 148.227,277.343 146.982,277.060 146.285 C 276.950 146.013,276.849 146.108,276.832 146.500 M273.906 150.408 C 273.305 151.063,272.917 151.600,273.043 151.600 C 273.474 151.600,274.999 150.183,275.100 149.690 C 275.240 149.002,275.140 149.062,273.906 150.408 M269.201 155.798 C 268.202 156.863,268.201 157.447,269.201 156.667 C 270.135 155.939,270.939 154.800,270.519 154.800 C 270.310 154.800,269.717 155.249,269.201 155.798 M262.093 163.030 C 259.388 165.803,259.180 166.540,261.800 164.070 C 264.055 161.943,265.404 160.395,264.970 160.430 C 264.766 160.447,263.472 161.617,262.093 163.030 M257.261 167.147 C 256.788 167.558,256.400 168.009,256.400 168.150 C 256.400 168.561,257.965 167.469,258.180 166.909 C 258.443 166.223,258.277 166.266,257.261 167.147 M244.000 175.600 C 244.000 175.820,244.405 175.997,244.900 175.994 C 245.628 175.989,245.685 175.914,245.200 175.600 C 244.424 175.099,244.000 175.099,244.000 175.600 M242.400 176.400 C 242.400 176.620,242.130 176.800,241.800 176.800 C 241.470 176.800,241.200 176.995,241.200 177.233 C 241.200 177.472,241.425 177.562,241.700 177.434 C 241.975 177.305,242.515 177.089,242.900 176.954 C 243.756 176.652,243.825 176.000,243.000 176.000 C 242.670 176.000,242.400 176.180,242.400 176.400 M231.600 181.200 C 231.600 181.420,231.870 181.600,232.200 181.600 C 232.530 181.600,232.800 181.420,232.800 181.200 C 232.800 180.980,232.530 180.800,232.200 180.800 C 231.870 180.800,231.600 180.980,231.600 181.200 M229.600 182.000 C 229.600 182.220,229.870 182.400,230.200 182.400 C 230.530 182.400,230.800 182.220,230.800 182.000 C 230.800 181.780,230.530 181.600,230.200 181.600 C 229.870 181.600,229.600 181.780,229.600 182.000 M221.600 184.315 C 221.600 184.769,223.141 184.819,223.416 184.375 C 223.543 184.169,223.187 184.000,222.624 184.000 C 222.061 184.000,221.600 184.142,221.600 184.315 M218.408 184.795 C 217.911 185.102,217.930 185.198,218.528 185.428 C 219.363 185.748,219.908 185.348,219.370 184.810 C 219.143 184.583,218.761 184.577,218.408 184.795 M212.400 185.951 C 212.400 186.335,214.687 186.247,215.086 185.847 C 215.222 185.711,214.673 185.600,213.867 185.600 C 213.060 185.600,212.400 185.758,212.400 185.951 M205.525 186.460 C 204.351 186.790,204.502 186.839,207.281 187.029 C 209.142 187.156,211.281 186.511,209.524 186.353 C 207.765 186.195,206.333 186.233,205.525 186.460 M200.001 199.400 C 200.000 199.755,206.039 199.787,238.967 199.611 C 240.048 199.605,240.809 199.475,240.656 199.323 C 240.199 198.866,200.001 198.942,200.001 199.400 M247.039 200.063 C 247.153 200.248,247.717 200.400,248.290 200.400 C 248.864 200.400,249.205 200.271,249.047 200.114 C 248.639 199.705,246.788 199.658,247.039 200.063 M252.000 200.900 C 252.000 201.065,252.630 201.200,253.400 201.200 C 254.170 201.200,254.800 201.065,254.800 200.900 C 254.800 200.735,254.170 200.600,253.400 200.600 C 252.630 200.600,252.000 200.735,252.000 200.900 M257.200 201.600 C 256.750 201.891,256.950 201.988,258.000 201.988 C 259.050 201.988,259.250 201.891,258.800 201.600 C 258.470 201.387,258.110 201.212,258.000 201.212 C 257.890 201.212,257.530 201.387,257.200 201.600 M260.800 202.400 C 260.800 202.620,261.171 202.800,261.624 202.800 C 262.077 202.800,262.336 202.620,262.200 202.400 C 262.064 202.180,261.693 202.000,261.376 202.000 C 261.059 202.000,260.800 202.180,260.800 202.400 M263.400 203.200 C 263.536 203.420,264.007 203.600,264.447 203.600 C 264.887 203.600,265.136 203.420,265.000 203.200 C 264.864 202.980,264.393 202.800,263.953 202.800 C 263.513 202.800,263.264 202.980,263.400 203.200 M266.600 204.000 C 266.736 204.220,267.207 204.400,267.647 204.400 C 268.087 204.400,268.336 204.220,268.200 204.000 C 268.064 203.780,267.593 203.600,267.153 203.600 C 266.713 203.600,266.464 203.780,266.600 204.000 M269.831 204.750 C 269.712 204.943,270.058 205.100,270.600 205.100 C 271.142 205.100,271.488 204.943,271.369 204.750 C 271.250 204.558,270.904 204.400,270.600 204.400 C 270.296 204.400,269.950 204.558,269.831 204.750 M276.000 207.200 C 276.000 207.420,276.360 207.600,276.800 207.600 C 277.240 207.600,277.600 207.420,277.600 207.200 C 277.600 206.980,277.240 206.800,276.800 206.800 C 276.360 206.800,276.000 206.980,276.000 207.200 M278.400 208.000 C 278.400 208.220,278.670 208.400,279.000 208.400 C 279.330 208.400,279.600 208.220,279.600 208.000 C 279.600 207.780,279.330 207.600,279.000 207.600 C 278.670 207.600,278.400 207.780,278.400 208.000 M280.200 208.800 C 280.064 209.020,280.323 209.200,280.776 209.200 C 281.229 209.200,281.600 209.020,281.600 208.800 C 281.600 208.580,281.341 208.400,281.024 208.400 C 280.707 208.400,280.336 208.580,280.200 208.800 M297.200 216.967 C 297.200 217.347,298.002 218.069,299.154 218.728 C 300.348 219.410,300.601 219.150,299.588 218.283 C 299.155 217.911,298.800 217.724,298.800 217.866 C 298.800 218.008,298.440 217.798,298.000 217.400 C 297.560 217.002,297.200 216.807,297.200 216.967 M307.479 224.254 C 307.347 224.387,307.508 224.765,307.838 225.095 C 308.615 225.872,308.884 225.603,308.228 224.706 C 307.949 224.324,307.612 224.121,307.479 224.254 M309.412 225.981 C 309.269 226.211,309.358 226.400,309.608 226.400 C 309.858 226.400,310.747 227.112,311.583 227.982 C 312.419 228.852,313.192 229.474,313.302 229.365 C 313.411 229.256,312.931 228.589,312.236 227.883 C 310.261 225.880,309.705 225.506,309.412 225.981 M318.000 233.529 C 318.000 233.714,318.444 234.102,318.986 234.393 C 319.529 234.683,319.878 235.073,319.763 235.260 C 319.647 235.447,319.833 235.600,320.176 235.600 C 321.173 235.600,320.897 235.069,319.395 234.096 C 318.628 233.599,318.000 233.344,318.000 233.529 M321.481 236.987 C 321.877 237.531,322.366 237.981,322.570 237.987 C 322.773 237.994,322.517 237.550,322.000 237.000 C 320.801 235.723,320.557 235.718,321.481 236.987 M324.219 239.969 C 323.984 240.349,327.905 244.628,328.210 244.324 C 328.303 244.230,327.501 243.232,326.427 242.106 C 325.353 240.980,324.578 239.956,324.704 239.830 C 324.830 239.703,324.824 239.600,324.690 239.600 C 324.557 239.600,324.345 239.766,324.219 239.969 M328.877 245.974 C 329.143 246.400,329.513 246.654,329.699 246.539 C 330.081 246.303,329.297 245.200,328.748 245.200 C 328.553 245.200,328.611 245.548,328.877 245.974 M337.200 257.997 C 337.200 258.218,337.391 258.400,337.624 258.400 C 337.857 258.400,337.936 258.580,337.800 258.800 C 337.664 259.020,337.716 259.200,337.915 259.200 C 338.115 259.200,338.491 259.605,338.751 260.100 C 339.035 260.640,339.140 260.707,339.012 260.267 C 338.896 259.864,338.800 259.323,338.800 259.064 C 338.800 258.804,338.440 258.368,338.000 258.093 C 337.526 257.797,337.200 257.757,337.200 257.997 M339.600 261.895 C 339.600 262.495,340.773 263.855,340.787 263.271 C 340.794 262.981,340.530 262.473,340.200 262.143 C 339.870 261.813,339.600 261.701,339.600 261.895 M341.600 266.200 C 341.600 266.530,341.767 266.800,341.972 266.800 C 342.177 266.800,342.415 267.205,342.502 267.700 C 342.651 268.552,342.677 268.559,343.002 267.824 C 343.227 267.313,343.183 266.994,342.872 266.891 C 342.612 266.804,342.400 266.478,342.400 266.167 C 342.400 265.855,342.220 265.600,342.000 265.600 C 341.780 265.600,341.600 265.870,341.600 266.200 M347.467 278.267 C 347.069 278.665,347.145 279.600,347.575 279.600 C 347.781 279.600,347.923 279.240,347.890 278.800 C 347.822 277.896,347.829 277.905,347.467 278.267 M348.000 281.200 C 348.000 281.947,348.107 282.053,348.480 281.680 C 348.853 281.307,348.853 281.093,348.480 280.720 C 348.107 280.347,348.000 280.453,348.000 281.200 M349.606 285.676 C 349.603 286.268,349.780 286.864,350.000 287.000 C 350.511 287.316,350.511 285.990,350.000 285.200 C 349.697 284.731,349.611 284.834,349.606 285.676 M350.400 288.957 C 350.400 289.557,350.564 289.946,350.764 289.822 C 351.166 289.574,351.115 288.582,350.678 288.145 C 350.525 287.992,350.400 288.357,350.400 288.957 M351.200 291.976 C 351.200 292.429,351.380 292.800,351.600 292.800 C 351.820 292.800,352.000 292.541,352.000 292.224 C 352.000 291.907,351.820 291.536,351.600 291.400 C 351.380 291.264,351.200 291.523,351.200 291.976 M352.000 295.200 C 352.000 295.640,352.142 296.000,352.315 296.000 C 352.488 296.000,352.657 295.640,352.690 295.200 C 352.723 294.760,352.581 294.400,352.375 294.400 C 352.169 294.400,352.000 294.760,352.000 295.200 M352.726 299.100 C 352.505 300.024,352.771 301.200,353.201 301.200 C 353.389 301.200,353.511 300.571,353.472 299.802 C 353.395 298.312,353.003 297.943,352.726 299.100 M353.531 304.048 C 353.253 305.505,353.773 306.943,354.149 305.758 C 354.297 305.295,354.261 304.494,354.070 303.979 L 353.724 303.041 353.531 304.048 M354.180 312.136 C 353.982 312.926,354.083 315.241,354.380 316.700 C 354.657 318.065,355.086 316.071,354.939 314.102 C 354.711 311.057,354.553 310.650,354.180 312.136 " stroke="none" fill="#0494fc" fill-rule="evenodd"></path><path id="path3" d="M200.003 93.505 L 200.010 187.011 201.905 187.057 C 202.947 187.083,203.932 186.901,204.094 186.652 C 204.304 186.329,204.390 186.343,204.394 186.700 C 204.397 186.975,204.591 187.200,204.824 187.200 C 205.057 187.200,205.136 187.020,205.000 186.800 C 204.756 186.406,205.741 186.242,207.500 186.384 C 207.995 186.424,208.400 186.262,208.400 186.024 C 208.400 185.735,207.070 185.625,204.400 185.695 L 200.399 185.800 200.400 93.057 L 200.400 0.313 201.500 0.597 C 203.201 1.037,209.872 1.222,210.859 0.856 C 211.689 0.549,205.709 -0.000,201.535 -0.000 L 199.995 0.000 200.003 93.505 M212.000 1.000 C 212.000 1.583,212.901 1.773,215.168 1.668 C 216.375 1.612,217.052 1.003,216.373 0.583 C 216.053 0.385,215.978 0.441,216.162 0.738 C 216.357 1.054,216.004 1.200,215.047 1.200 C 214.277 1.200,213.536 1.020,213.400 0.800 C 213.018 0.182,212.000 0.327,212.000 1.000 M217.200 1.800 C 217.200 2.130,217.515 2.421,217.900 2.446 C 219.892 2.577,221.315 1.965,220.373 1.383 C 220.053 1.185,219.978 1.241,220.162 1.538 C 220.350 1.842,220.090 2.000,219.400 2.000 C 218.804 2.000,218.459 1.828,218.600 1.600 C 218.736 1.380,218.477 1.200,218.024 1.200 C 217.558 1.200,217.200 1.461,217.200 1.800 M221.067 2.267 C 220.469 2.864,220.876 3.200,222.200 3.200 C 222.970 3.200,223.600 3.380,223.600 3.600 C 223.600 3.820,224.320 4.000,225.200 4.000 C 226.080 4.000,226.800 4.180,226.800 4.400 C 226.800 4.620,227.239 4.800,227.776 4.800 C 228.313 4.800,228.864 4.980,229.000 5.200 C 229.136 5.420,229.687 5.600,230.224 5.600 C 230.761 5.600,231.200 5.780,231.200 6.000 C 231.200 6.220,231.639 6.400,232.176 6.400 C 232.713 6.400,233.264 6.580,233.400 6.800 C 233.536 7.020,233.961 7.200,234.344 7.200 C 235.219 7.200,237.193 8.099,237.197 8.500 C 237.199 8.665,237.434 8.800,237.720 8.800 C 238.456 8.800,240.393 9.741,240.397 10.100 C 240.399 10.265,240.634 10.400,240.920 10.400 C 241.656 10.400,243.593 11.341,243.597 11.700 C 243.599 11.865,243.857 12.000,244.172 12.000 C 244.486 12.000,245.791 12.695,247.072 13.543 C 248.352 14.392,250.128 15.457,251.018 15.910 C 251.908 16.362,253.348 17.374,254.218 18.157 C 255.088 18.940,255.948 19.586,256.129 19.591 C 256.309 19.596,256.694 19.825,256.984 20.100 C 257.940 21.007,259.206 22.000,259.407 22.000 C 259.792 22.000,271.600 34.037,271.600 34.429 C 271.600 34.648,272.140 35.355,272.800 36.000 C 273.460 36.645,274.000 37.377,274.000 37.626 C 274.000 37.875,274.540 38.583,275.200 39.200 C 275.860 39.817,276.400 40.543,276.400 40.814 C 276.400 41.084,276.718 41.597,277.107 41.953 C 277.496 42.309,278.244 43.455,278.770 44.500 C 279.296 45.545,279.877 46.400,280.063 46.400 C 280.248 46.400,280.400 46.760,280.400 47.200 C 280.400 47.640,280.560 48.000,280.756 48.000 C 281.083 48.000,281.792 49.344,283.236 52.700 C 283.544 53.415,283.909 54.000,284.048 54.000 C 284.186 54.000,284.404 54.518,284.530 55.152 C 284.657 55.785,285.031 56.574,285.361 56.904 C 285.692 57.234,285.862 57.605,285.740 57.727 C 285.618 57.848,285.793 58.341,286.129 58.820 C 286.465 59.300,286.645 59.940,286.528 60.243 C 286.412 60.545,286.583 60.895,286.908 61.020 C 287.234 61.145,287.500 61.707,287.500 62.269 C 287.500 62.831,287.657 63.406,287.850 63.545 C 288.043 63.685,288.200 64.158,288.200 64.595 C 288.200 65.032,288.505 65.448,288.877 65.519 C 289.344 65.609,289.535 65.402,289.494 64.853 C 289.461 64.414,289.261 64.162,289.049 64.293 C 288.832 64.427,288.771 64.254,288.908 63.895 C 289.043 63.545,288.887 63.038,288.561 62.768 C 288.236 62.498,287.998 61.990,288.031 61.639 C 288.185 60.028,288.004 59.377,287.576 60.000 C 287.234 60.499,287.175 60.465,287.228 59.800 C 287.339 58.415,287.213 57.945,286.800 58.200 C 286.567 58.344,286.400 57.937,286.400 57.224 C 286.400 56.551,286.220 56.000,286.000 56.000 C 285.780 56.000,285.600 55.472,285.600 54.827 C 285.600 54.005,285.360 53.578,284.800 53.400 C 284.235 53.221,284.000 52.795,284.000 51.949 C 284.000 51.254,283.833 50.856,283.600 51.000 C 283.366 51.145,283.187 50.698,283.168 49.924 C 283.151 49.196,283.041 48.841,282.923 49.136 C 282.775 49.508,282.563 49.386,282.230 48.736 C 281.938 48.166,281.898 47.700,282.128 47.544 C 282.336 47.403,282.122 47.166,281.653 47.017 C 281.184 46.868,280.800 46.568,280.800 46.349 C 280.800 46.131,281.025 46.088,281.300 46.253 C 281.640 46.457,281.624 46.337,281.251 45.877 C 280.657 45.144,280.198 44.949,280.600 45.600 C 280.736 45.820,280.636 46.000,280.377 46.000 C 280.104 46.000,279.994 45.665,280.116 45.200 C 280.252 44.680,280.128 44.400,279.763 44.400 C 279.453 44.400,279.200 44.080,279.200 43.688 C 279.200 43.297,278.856 42.729,278.436 42.426 C 278.016 42.124,277.765 41.635,277.878 41.341 C 277.991 41.047,277.794 40.696,277.442 40.561 C 277.089 40.425,276.800 40.053,276.800 39.734 C 276.800 39.414,276.620 39.264,276.400 39.400 C 276.180 39.536,276.000 39.266,276.000 38.800 C 276.000 38.334,275.820 38.064,275.600 38.200 C 275.380 38.336,275.200 38.233,275.200 37.971 C 275.200 37.708,274.882 37.203,274.493 36.847 C 274.105 36.491,273.610 35.672,273.393 35.027 C 273.177 34.382,272.859 33.894,272.686 33.942 C 272.342 34.037,271.200 33.010,271.200 32.605 C 271.200 32.466,271.408 32.481,271.662 32.638 C 271.950 32.816,272.015 32.748,271.834 32.455 C 271.675 32.198,271.377 32.091,271.172 32.217 C 270.968 32.344,270.800 32.137,270.800 31.757 C 270.800 31.377,270.689 31.178,270.552 31.314 C 270.278 31.589,269.000 30.448,269.000 29.927 C 269.000 29.746,268.493 29.162,267.874 28.629 C 267.254 28.097,266.759 27.558,266.774 27.431 C 266.863 26.646,266.737 26.400,266.246 26.400 C 265.416 26.400,263.573 25.360,263.873 25.061 C 264.016 24.917,263.948 24.800,263.720 24.800 C 263.080 24.800,258.797 20.537,259.116 20.217 C 259.272 20.061,259.220 19.970,259.000 20.014 C 258.067 20.202,257.171 19.970,257.400 19.600 C 257.536 19.380,257.444 19.200,257.195 19.200 C 256.676 19.200,255.373 18.006,255.871 17.988 C 256.052 17.981,255.884 17.791,255.497 17.566 C 255.110 17.341,254.617 17.266,254.401 17.399 C 254.182 17.535,254.110 17.379,254.238 17.046 C 254.398 16.627,253.921 16.202,252.633 15.615 C 251.625 15.156,250.800 14.610,250.800 14.403 C 250.800 14.195,250.500 14.140,250.134 14.281 C 249.670 14.459,249.561 14.386,249.775 14.041 C 249.982 13.705,249.843 13.587,249.340 13.673 C 248.913 13.746,248.642 13.589,248.700 13.300 C 248.788 12.859,248.632 12.775,247.792 12.808 C 247.678 12.813,247.208 12.466,246.748 12.038 C 246.282 11.603,245.636 11.365,245.287 11.499 C 244.829 11.674,244.729 11.563,244.913 11.083 C 245.122 10.538,244.964 10.467,243.982 10.664 C 243.233 10.813,242.800 10.735,242.800 10.450 C 242.800 10.203,242.530 10.000,242.200 10.000 C 241.870 10.000,241.600 9.820,241.600 9.600 C 241.600 9.380,241.150 9.200,240.600 9.200 C 240.050 9.200,239.600 9.020,239.600 8.800 C 239.600 8.580,239.240 8.400,238.800 8.400 C 238.360 8.400,238.000 8.220,238.000 8.000 C 238.000 7.780,237.812 7.600,237.583 7.600 C 237.354 7.600,236.780 7.240,236.308 6.800 C 235.836 6.360,235.258 6.003,235.025 6.006 C 234.791 6.009,234.870 6.187,235.200 6.400 C 235.732 6.744,235.732 6.788,235.196 6.794 C 234.864 6.797,234.359 6.426,234.074 5.970 C 233.674 5.329,233.431 5.242,233.013 5.589 C 232.640 5.899,232.390 5.908,232.212 5.619 C 232.069 5.389,231.593 5.200,231.153 5.200 C 230.713 5.200,230.441 5.057,230.549 4.883 C 230.656 4.709,230.175 4.523,229.479 4.469 C 228.783 4.416,228.039 4.199,227.827 3.987 C 227.614 3.774,226.801 3.597,226.020 3.594 C 224.956 3.589,224.750 3.491,225.200 3.200 C 225.634 2.920,225.274 2.811,223.900 2.806 C 222.855 2.803,222.000 2.620,222.000 2.400 C 222.000 1.945,221.465 1.868,221.067 2.267 M288.832 66.913 C 288.814 67.524,289.033 68.115,289.318 68.224 C 289.648 68.350,289.780 68.912,289.680 69.764 C 289.522 71.122,290.047 71.865,290.826 71.384 C 291.109 71.209,291.046 70.893,290.637 70.440 C 290.257 70.021,290.066 69.194,290.138 68.280 C 290.214 67.310,290.084 66.800,289.760 66.800 C 289.489 66.800,289.176 66.575,289.065 66.300 C 288.954 66.025,288.849 66.301,288.832 66.913 M290.446 73.100 C 290.414 74.010,290.580 74.400,291.000 74.400 C 291.330 74.400,291.600 74.130,291.600 73.800 C 291.600 73.470,291.433 73.200,291.229 73.200 C 291.025 73.200,290.776 72.885,290.676 72.500 C 290.575 72.115,290.472 72.385,290.446 73.100 M291.449 77.200 C 292.089 85.291,292.226 86.155,292.812 85.793 C 293.025 85.661,293.200 84.743,293.200 83.753 C 293.200 82.747,293.036 82.054,292.829 82.182 C 292.617 82.313,292.457 81.439,292.457 80.147 C 292.457 78.902,292.281 77.773,292.065 77.640 C 291.849 77.507,291.583 76.858,291.473 76.199 C 291.364 75.539,291.353 75.990,291.449 77.200 M292.950 93.800 C 292.951 96.220,293.016 97.158,293.096 95.885 C 293.176 94.612,293.175 92.632,293.094 91.485 C 293.014 90.338,292.949 91.380,292.950 93.800 M292.251 101.304 C 292.119 101.797,292.035 103.100,292.065 104.200 C 292.097 105.346,292.191 105.730,292.287 105.100 C 292.378 104.495,292.621 104.000,292.827 104.000 C 293.302 104.000,293.319 100.921,292.845 100.628 C 292.650 100.508,292.383 100.812,292.251 101.304 M291.493 107.500 C 291.408 107.665,291.326 108.610,291.311 109.600 C 291.294 110.641,291.361 110.936,291.468 110.300 C 291.570 109.695,291.821 109.200,292.027 109.200 C 292.232 109.200,292.400 108.750,292.400 108.200 C 292.400 107.264,291.837 106.830,291.493 107.500 M290.880 112.080 C 290.616 112.344,290.400 113.143,290.400 113.856 C 290.400 114.569,290.220 115.264,290.000 115.400 C 289.780 115.536,289.621 116.132,289.646 116.724 C 289.676 117.401,289.761 117.540,289.876 117.100 C 289.976 116.715,290.225 116.400,290.429 116.400 C 290.633 116.400,290.800 115.770,290.800 115.000 C 290.800 114.230,290.978 113.600,291.196 113.600 C 291.413 113.600,291.554 113.150,291.508 112.600 C 291.463 112.050,291.411 111.600,291.393 111.600 C 291.375 111.600,291.144 111.816,290.880 112.080 M288.938 119.017 C 288.808 119.357,288.814 119.747,288.951 119.885 C 289.089 120.022,288.909 120.459,288.551 120.854 C 288.193 121.250,287.992 121.928,288.106 122.361 C 288.231 122.840,288.077 123.238,287.713 123.378 C 287.309 123.533,287.193 123.917,287.355 124.562 C 287.520 125.219,287.400 125.591,286.972 125.755 C 286.629 125.887,286.456 126.168,286.587 126.380 C 286.718 126.592,287.072 126.670,287.373 126.555 C 288.060 126.291,288.485 124.800,287.874 124.800 C 287.625 124.800,287.831 124.514,288.330 124.164 C 289.041 123.666,289.139 123.408,288.779 122.975 C 288.428 122.552,288.465 122.278,288.936 121.806 C 289.275 121.468,289.483 120.833,289.399 120.395 C 289.232 119.526,289.809 119.295,290.137 120.100 C 290.249 120.375,290.315 120.105,290.283 119.500 C 290.221 118.317,289.329 117.997,288.938 119.017 M285.841 127.836 C 285.707 128.186,285.691 128.624,285.805 128.808 C 285.920 128.993,285.830 129.258,285.607 129.396 C 285.383 129.534,285.200 129.997,285.200 130.424 C 285.200 130.851,285.052 131.200,284.871 131.200 C 284.501 131.200,282.000 136.347,282.000 137.109 C 282.000 137.379,281.820 137.600,281.600 137.600 C 281.380 137.600,281.200 137.870,281.200 138.200 C 281.200 138.530,281.041 138.800,280.847 138.800 C 280.652 138.800,280.390 139.115,280.264 139.500 C 280.137 139.885,279.621 140.855,279.117 141.655 C 278.613 142.455,277.626 144.075,276.924 145.255 C 276.223 146.435,275.278 147.665,274.824 147.988 C 274.371 148.312,274.000 148.730,274.000 148.917 C 274.000 149.104,273.775 149.486,273.500 149.765 C 273.225 150.045,272.550 150.879,272.000 151.620 C 269.850 154.516,262.538 162.057,260.155 163.837 C 259.300 164.475,258.129 165.487,257.553 166.085 C 256.977 166.683,256.399 167.066,256.270 166.937 C 256.141 166.807,255.172 167.465,254.117 168.398 C 253.063 169.332,251.750 170.295,251.200 170.540 C 250.650 170.784,250.110 171.082,250.000 171.201 C 249.468 171.779,245.248 174.338,244.300 174.658 C 243.915 174.787,243.600 175.052,243.600 175.247 C 243.600 175.441,243.366 175.600,243.080 175.600 C 242.344 175.600,240.407 176.541,240.403 176.900 C 240.401 177.065,240.135 177.200,239.812 177.200 C 239.489 177.200,238.583 177.560,237.800 178.000 C 237.017 178.440,236.111 178.800,235.788 178.800 C 235.465 178.800,235.200 178.980,235.200 179.200 C 235.200 179.420,234.660 179.600,234.000 179.600 C 233.340 179.600,232.800 179.780,232.800 180.000 C 232.800 180.220,232.451 180.400,232.024 180.400 C 231.597 180.400,231.136 180.580,231.000 180.800 C 230.864 181.020,230.324 181.200,229.800 181.200 C 229.276 181.200,228.736 181.380,228.600 181.600 C 228.464 181.820,227.913 182.000,227.376 182.000 C 226.775 182.000,226.400 182.231,226.400 182.600 C 226.400 182.930,226.580 183.200,226.800 183.200 C 227.020 183.200,227.200 183.020,227.200 182.800 C 227.200 182.580,227.740 182.400,228.400 182.400 C 229.060 182.400,229.600 182.220,229.600 182.000 C 229.600 181.780,230.050 181.600,230.600 181.600 C 231.150 181.600,231.600 181.420,231.600 181.200 C 231.600 180.980,231.870 180.800,232.200 180.800 C 232.530 180.800,232.800 181.008,232.800 181.261 C 232.800 181.515,233.155 181.314,233.588 180.814 C 234.062 180.267,234.626 180.001,235.003 180.146 C 235.366 180.285,235.726 180.137,235.858 179.793 C 235.983 179.467,236.411 179.200,236.809 179.200 C 237.208 179.200,237.638 178.975,237.767 178.700 C 237.949 178.310,238.050 178.307,238.229 178.688 C 238.410 179.073,238.571 179.073,238.987 178.688 C 239.278 178.420,239.434 178.065,239.334 177.900 C 239.235 177.735,239.613 177.600,240.176 177.600 C 240.739 177.600,241.200 177.420,241.200 177.200 C 241.200 176.980,241.470 176.800,241.800 176.800 C 242.130 176.800,242.400 176.599,242.400 176.353 C 242.400 176.104,242.753 175.999,243.200 176.116 C 243.733 176.255,244.000 176.128,244.000 175.736 C 244.000 175.328,244.247 175.224,244.800 175.400 C 245.368 175.580,245.600 175.472,245.600 175.027 C 245.600 174.676,245.937 174.400,246.367 174.400 C 246.788 174.400,247.193 174.236,247.267 174.037 C 247.340 173.837,247.760 173.612,248.200 173.537 C 248.640 173.461,249.238 173.130,249.530 172.800 C 250.000 172.267,250.028 172.267,249.779 172.800 C 249.625 173.130,249.979 172.905,250.566 172.300 C 251.730 171.100,252.432 170.793,251.549 171.870 C 251.071 172.453,251.143 172.447,252.100 171.824 C 252.705 171.430,253.200 170.839,253.200 170.511 C 253.200 170.127,253.429 170.002,253.845 170.162 C 254.306 170.339,254.423 170.237,254.257 169.805 C 254.089 169.366,254.296 169.200,255.013 169.200 C 255.556 169.200,256.000 169.028,256.000 168.818 C 256.000 168.197,258.019 166.364,258.426 166.616 C 258.632 166.743,258.800 166.657,258.800 166.424 C 258.800 166.191,258.935 166.045,259.100 166.100 C 259.265 166.155,259.443 166.063,259.496 165.896 C 259.650 165.412,264.753 160.400,265.093 160.400 C 265.640 160.399,267.594 158.527,267.326 158.260 C 267.183 158.117,267.339 158.000,267.671 158.000 C 268.004 158.000,268.619 157.598,269.038 157.107 C 269.658 156.380,269.670 156.315,269.100 156.756 C 268.715 157.054,268.400 157.127,268.400 156.919 C 268.400 156.381,270.153 154.800,270.749 154.800 C 271.023 154.800,271.136 154.620,271.000 154.399 C 270.863 154.179,271.213 153.823,271.776 153.609 C 272.682 153.265,273.032 152.550,272.831 151.451 C 272.796 151.259,273.039 151.206,273.371 151.333 C 273.703 151.461,274.098 151.365,274.249 151.121 C 274.415 150.852,274.341 150.789,274.062 150.962 C 273.424 151.356,273.482 150.861,274.152 150.190 C 274.456 149.887,274.845 149.765,275.017 149.919 C 275.188 150.074,275.202 149.980,275.047 149.711 C 274.890 149.437,275.117 148.921,275.562 148.539 C 276.001 148.164,276.268 147.709,276.156 147.529 C 276.044 147.348,276.143 147.200,276.376 147.200 C 276.609 147.200,276.803 146.885,276.806 146.500 C 276.811 145.902,276.869 145.887,277.200 146.400 C 277.531 146.913,277.589 146.898,277.594 146.300 C 277.597 145.915,277.825 145.597,278.100 145.594 C 278.474 145.589,278.466 145.503,278.066 145.249 C 277.664 144.995,277.751 144.854,278.418 144.679 C 279.008 144.525,279.225 144.243,279.069 143.835 C 278.940 143.499,279.096 142.961,279.417 142.640 C 279.738 142.319,280.000 141.764,280.000 141.405 C 280.000 141.046,280.180 140.864,280.400 141.000 C 280.620 141.136,280.803 140.922,280.806 140.524 C 280.811 139.910,280.871 139.891,281.200 140.400 C 281.493 140.854,281.589 140.678,281.594 139.676 C 281.597 138.897,281.764 138.454,282.000 138.600 C 282.371 138.829,282.581 138.270,282.431 137.449 C 282.395 137.257,282.734 136.841,283.183 136.527 C 283.679 136.179,284.000 135.509,284.000 134.820 C 284.000 134.186,284.262 133.585,284.593 133.458 C 284.961 133.317,285.087 132.971,284.925 132.550 C 284.748 132.089,284.815 131.962,285.132 132.158 C 285.444 132.351,285.600 132.098,285.600 131.400 C 285.600 130.824,285.742 130.440,285.915 130.548 C 286.088 130.655,286.270 130.260,286.319 129.671 C 286.367 129.082,286.585 128.540,286.803 128.467 C 287.410 128.263,287.275 127.200,286.643 127.200 C 286.336 127.200,285.976 127.486,285.841 127.836 M223.900 182.709 C 223.515 182.791,223.200 183.010,223.200 183.194 C 223.200 183.379,222.760 183.481,222.222 183.422 C 221.246 183.315,219.004 184.470,219.406 184.873 C 219.731 185.198,221.600 184.755,221.600 184.353 C 221.600 184.159,222.331 184.000,223.224 184.000 C 224.121 184.000,224.745 183.834,224.618 183.629 C 224.491 183.424,224.796 183.196,225.294 183.120 C 226.138 182.993,226.145 182.969,225.400 182.771 C 224.960 182.654,224.285 182.626,223.900 182.709 M216.212 184.627 C 215.560 184.966,214.435 185.127,213.439 185.024 C 212.518 184.929,211.592 184.975,211.382 185.126 C 210.667 185.639,210.797 186.400,211.600 186.400 C 212.040 186.400,212.400 186.206,212.400 185.969 C 212.400 185.715,213.049 185.586,213.983 185.653 C 214.854 185.716,215.669 185.664,215.796 185.538 C 215.922 185.411,216.569 185.371,217.233 185.448 C 217.956 185.533,218.343 185.431,218.197 185.195 C 218.063 184.978,218.143 184.800,218.376 184.800 C 218.609 184.800,218.800 184.658,218.800 184.485 C 218.800 183.950,217.366 184.029,216.212 184.627 M209.294 186.159 C 209.675 186.445,209.855 186.825,209.694 187.004 C 209.532 187.182,209.625 187.199,209.900 187.041 C 210.663 186.601,210.499 186.118,209.500 185.867 C 208.686 185.661,208.666 185.689,209.294 186.159 M208.500 199.100 C 213.065 199.164,220.535 199.164,225.100 199.100 C 229.665 199.035,225.930 198.983,216.800 198.983 C 207.670 198.983,203.935 199.035,208.500 199.100 M200.188 200.093 C 200.082 200.372,200.042 245.510,200.098 300.400 L 200.202 400.200 200.301 300.300 L 200.400 200.400 218.000 200.350 C 237.240 200.295,236.214 200.319,236.618 199.915 C 236.774 199.759,228.685 199.621,218.641 199.608 C 204.242 199.590,200.340 199.692,200.188 200.093 M238.100 199.887 C 238.705 199.978,239.695 199.978,240.300 199.887 C 240.905 199.795,240.410 199.720,239.200 199.720 C 237.990 199.720,237.495 199.795,238.100 199.887 M242.803 199.887 L 241.807 200.081 242.969 200.556 C 243.609 200.817,245.407 201.004,246.966 200.971 C 248.525 200.937,249.915 201.089,250.056 201.308 C 250.197 201.526,251.367 201.727,252.656 201.754 C 253.945 201.781,255.216 201.943,255.480 202.113 C 255.744 202.284,256.644 202.443,257.480 202.467 C 258.316 202.491,259.231 202.694,259.514 202.916 C 259.796 203.139,260.561 203.306,261.214 203.287 C 261.866 203.269,262.400 203.421,262.400 203.627 C 262.400 203.832,263.131 204.000,264.024 204.000 C 265.004 204.000,265.549 204.158,265.400 204.400 C 265.249 204.645,265.870 204.800,267.000 204.800 C 268.130 204.800,268.751 204.955,268.600 205.200 C 268.456 205.433,268.863 205.600,269.576 205.600 C 270.249 205.600,270.800 205.780,270.800 206.000 C 270.800 206.220,271.239 206.400,271.776 206.400 C 272.313 206.400,272.864 206.580,273.000 206.800 C 273.136 207.020,273.687 207.200,274.224 207.200 C 274.761 207.200,275.200 207.380,275.200 207.600 C 275.200 207.820,275.650 208.000,276.200 208.000 C 276.750 208.000,277.200 208.180,277.200 208.400 C 277.200 208.620,277.740 208.800,278.400 208.800 C 279.060 208.800,279.600 208.980,279.600 209.200 C 279.600 209.420,279.834 209.600,280.120 209.600 C 280.856 209.600,282.793 210.541,282.797 210.900 C 282.799 211.065,283.036 211.200,283.325 211.200 C 283.614 211.200,284.609 211.567,285.538 212.016 C 286.466 212.464,287.428 212.706,287.675 212.554 C 287.933 212.394,288.013 212.456,287.862 212.699 C 287.630 213.074,289.519 214.089,290.600 214.170 C 290.820 214.187,291.322 214.597,291.715 215.082 C 292.108 215.567,292.670 215.871,292.963 215.759 C 293.257 215.646,293.609 215.846,293.746 216.202 C 293.882 216.559,294.152 216.754,294.344 216.635 C 294.536 216.516,295.015 216.775,295.409 217.209 C 295.802 217.644,296.437 218.000,296.819 218.000 C 297.202 218.000,297.604 218.225,297.713 218.500 C 297.823 218.775,298.607 219.358,299.456 219.794 C 300.305 220.231,301.291 220.906,301.647 221.294 C 302.003 221.683,302.498 222.000,302.747 222.000 C 302.996 222.000,303.200 222.180,303.200 222.400 C 303.200 222.620,303.382 222.800,303.604 222.800 C 303.826 222.800,304.572 223.340,305.263 224.000 C 305.954 224.660,306.674 225.200,306.863 225.200 C 307.052 225.200,307.762 225.695,308.441 226.300 C 309.120 226.905,309.806 227.400,309.965 227.400 C 310.824 227.400,325.314 242.022,327.207 244.800 C 327.732 245.570,328.260 246.290,328.381 246.400 C 329.060 247.019,331.200 250.013,331.200 250.343 C 331.200 250.558,331.349 250.793,331.530 250.867 C 331.860 251.000,335.605 256.463,336.146 257.600 C 336.719 258.805,337.536 260.114,337.864 260.354 C 338.161 260.571,339.060 262.344,344.049 272.556 C 344.682 273.852,345.200 275.236,345.200 275.633 C 345.200 276.029,345.380 276.464,345.600 276.600 C 345.820 276.736,346.000 277.176,346.000 277.577 C 346.000 278.031,346.365 278.377,346.965 278.491 C 347.817 278.654,347.875 278.590,347.468 277.938 C 347.215 277.532,346.871 277.200,346.704 277.200 C 346.537 277.200,346.400 276.840,346.400 276.400 C 346.400 275.960,346.220 275.600,346.000 275.600 C 345.780 275.600,345.600 275.319,345.600 274.976 C 345.600 274.633,345.780 274.464,346.000 274.600 C 346.756 275.067,346.400 274.176,345.600 273.600 C 345.160 273.283,344.800 272.703,344.800 272.312 C 344.800 271.920,344.620 271.600,344.400 271.600 C 344.180 271.600,344.000 271.409,344.000 271.176 C 344.000 270.943,344.163 270.854,344.363 270.977 C 344.562 271.100,344.519 270.764,344.267 270.231 C 343.961 269.582,343.711 269.416,343.511 269.730 C 343.338 270.002,343.210 269.726,343.206 269.076 C 343.203 268.430,343.030 268.058,342.800 268.200 C 342.580 268.336,342.400 268.077,342.400 267.624 C 342.400 267.171,342.220 266.800,342.000 266.800 C 341.780 266.800,341.600 266.365,341.600 265.833 C 341.600 265.302,341.375 264.776,341.100 264.665 C 340.721 264.512,340.718 264.456,341.087 264.432 C 341.356 264.414,341.472 264.131,341.346 263.802 C 341.219 263.474,340.964 263.299,340.778 263.414 C 340.592 263.528,340.251 263.269,340.020 262.837 C 339.465 261.800,339.490 261.489,340.100 261.842 C 340.375 262.001,340.150 261.668,339.600 261.103 C 338.043 259.503,337.628 258.905,337.891 258.643 C 338.024 258.509,337.923 258.400,337.667 258.400 C 337.410 258.400,337.200 258.209,337.200 257.976 C 337.200 257.743,337.425 257.688,337.700 257.853 C 338.040 258.057,338.024 257.937,337.651 257.477 C 337.349 257.105,336.842 256.800,336.524 256.800 C 336.129 256.800,336.026 256.548,336.199 256.004 C 336.495 255.071,335.416 253.217,335.074 254.072 C 334.958 254.362,334.849 254.195,334.832 253.700 C 334.814 253.205,334.609 252.800,334.376 252.800 C 334.143 252.800,334.057 252.632,334.184 252.426 C 334.311 252.220,333.973 251.609,333.432 251.068 C 332.891 250.527,332.573 249.961,332.724 249.809 C 332.876 249.657,332.730 249.593,332.400 249.667 C 332.070 249.740,331.845 249.575,331.900 249.300 C 331.955 249.025,331.774 248.800,331.498 248.800 C 331.221 248.800,330.756 248.259,330.463 247.598 C 330.170 246.936,329.794 246.480,329.626 246.584 C 329.458 246.688,329.068 246.284,328.760 245.686 C 328.452 245.089,327.351 243.762,326.313 242.738 C 325.275 241.715,324.375 240.636,324.313 240.342 C 324.251 240.048,323.750 239.352,323.200 238.795 C 321.607 237.183,320.550 235.833,321.162 236.193 C 321.541 236.416,321.631 236.373,321.438 236.062 C 321.281 235.808,320.793 235.600,320.353 235.600 C 319.913 235.600,319.652 235.439,319.774 235.242 C 319.896 235.045,319.715 234.776,319.372 234.645 C 319.030 234.513,318.854 234.237,318.981 234.030 C 319.109 233.824,319.002 233.525,318.745 233.366 C 318.452 233.185,318.384 233.250,318.562 233.538 C 318.719 233.792,318.676 234.000,318.467 234.000 C 318.258 234.000,317.965 233.514,317.816 232.921 C 317.603 232.075,317.466 231.967,317.179 232.421 C 316.900 232.862,316.811 232.874,316.806 232.471 C 316.798 231.800,315.776 230.757,315.448 231.086 C 315.311 231.222,315.200 231.033,315.200 230.667 C 315.200 230.260,314.878 230.000,314.376 230.000 C 313.849 230.000,313.657 229.831,313.842 229.532 C 314.040 229.211,313.908 229.150,313.421 229.337 C 312.898 229.537,312.771 229.453,312.938 229.017 C 313.063 228.692,312.965 228.302,312.721 228.151 C 312.452 227.985,312.389 228.059,312.562 228.338 C 313.109 229.223,312.313 228.792,311.200 227.600 C 310.583 226.940,309.871 226.400,309.616 226.400 C 309.361 226.400,309.264 226.220,309.400 226.000 C 309.536 225.780,309.354 225.600,308.995 225.600 C 308.392 225.600,306.873 224.420,307.100 224.129 C 307.499 223.615,307.013 223.200,306.013 223.200 C 305.117 223.200,304.882 223.051,305.057 222.595 C 305.229 222.146,305.107 222.061,304.579 222.263 C 304.092 222.450,303.960 222.389,304.158 222.068 C 304.344 221.767,304.145 221.600,303.600 221.600 C 303.134 221.600,302.864 221.420,303.000 221.200 C 303.136 220.980,302.967 220.800,302.624 220.800 C 302.253 220.800,301.987 220.435,301.968 219.900 C 301.951 219.405,301.846 219.225,301.735 219.500 C 301.624 219.775,301.358 220.000,301.143 220.000 C 300.928 220.000,300.864 219.820,301.000 219.600 C 301.136 219.380,300.964 219.200,300.618 219.200 C 299.825 219.200,298.405 218.411,297.557 217.500 C 297.199 217.115,296.567 216.797,296.153 216.794 C 295.520 216.789,295.496 216.726,296.000 216.400 C 296.468 216.098,296.357 216.011,295.500 216.006 C 294.895 216.003,294.400 215.809,294.400 215.576 C 294.400 215.343,294.229 215.258,294.020 215.388 C 293.811 215.517,293.439 215.246,293.192 214.785 C 292.811 214.073,292.648 214.027,292.097 214.474 C 291.541 214.926,291.487 214.902,291.713 214.300 C 291.922 213.741,291.755 213.599,290.887 213.594 C 290.038 213.589,289.932 213.503,290.400 213.200 C 290.854 212.907,290.678 212.811,289.676 212.806 C 288.897 212.803,288.454 212.636,288.600 212.400 C 288.736 212.180,288.466 212.000,288.000 212.000 C 287.534 212.000,287.254 211.836,287.378 211.635 C 287.502 211.434,287.162 211.318,286.623 211.378 C 286.057 211.440,285.548 211.242,285.421 210.909 C 285.299 210.593,284.975 210.409,284.700 210.502 C 284.425 210.594,283.610 210.339,282.888 209.935 C 282.166 209.531,281.221 209.200,280.788 209.200 C 280.355 209.200,280.045 208.975,280.100 208.700 C 280.162 208.391,279.855 208.248,279.300 208.325 C 278.805 208.394,278.400 208.259,278.400 208.025 C 278.400 207.791,277.860 207.600,277.200 207.600 C 276.540 207.600,276.000 207.420,276.000 207.200 C 276.000 206.980,275.539 206.800,274.976 206.800 C 274.396 206.800,274.060 206.627,274.200 206.400 C 274.344 206.168,273.949 206.000,273.257 206.000 C 272.602 206.000,271.999 205.798,271.917 205.550 C 271.834 205.303,271.282 205.100,270.691 205.100 C 270.099 205.100,269.712 204.943,269.831 204.750 C 269.950 204.558,269.327 204.400,268.447 204.400 C 267.567 204.400,266.736 204.220,266.600 204.000 C 266.464 203.780,265.744 203.600,265.000 203.600 C 264.256 203.600,263.536 203.420,263.400 203.200 C 263.264 202.980,262.638 202.800,262.010 202.800 C 261.381 202.800,260.796 202.589,260.711 202.332 C 260.616 202.047,259.784 201.890,258.577 201.930 C 257.265 201.974,256.791 201.874,257.166 201.633 C 257.537 201.396,256.779 201.263,254.971 201.249 C 253.442 201.238,252.148 201.043,252.071 200.814 C 251.995 200.586,251.509 200.400,250.990 200.400 C 250.472 200.400,249.936 200.220,249.800 200.000 C 249.664 199.780,249.373 199.600,249.153 199.600 C 248.933 199.600,248.864 199.780,249.000 200.000 C 249.141 200.228,248.796 200.400,248.200 200.400 C 247.624 200.400,247.244 200.252,247.356 200.071 C 247.580 199.708,244.386 199.580,242.803 199.887 M346.800 279.771 C 346.800 280.337,346.980 280.800,347.200 280.800 C 347.420 280.800,347.600 281.250,347.600 281.800 C 347.600 282.350,347.780 282.800,348.000 282.800 C 348.220 282.800,348.400 283.340,348.400 284.000 C 348.400 284.660,348.568 285.200,348.773 285.200 C 348.979 285.200,349.131 285.748,349.112 286.419 C 349.093 287.089,349.285 287.845,349.539 288.099 C 349.792 288.352,350.000 289.143,350.000 289.856 C 350.000 290.569,350.163 291.254,350.362 291.377 C 350.562 291.500,350.638 291.934,350.531 292.341 C 350.425 292.748,350.586 293.333,350.890 293.640 C 351.203 293.958,351.404 294.851,351.354 295.704 C 351.305 296.531,351.486 297.431,351.757 297.704 C 352.042 297.992,352.219 299.088,352.179 300.315 C 352.123 302.014,352.257 302.509,352.855 302.829 C 353.488 303.168,353.600 303.080,353.600 302.247 C 353.600 301.708,353.401 301.200,353.157 301.119 C 352.906 301.035,352.690 299.898,352.658 298.486 C 352.626 297.119,352.471 296.000,352.312 296.000 C 352.154 296.000,352.049 295.335,352.080 294.523 C 352.111 293.704,351.927 292.976,351.668 292.889 C 351.410 292.803,351.200 292.403,351.200 292.000 C 351.200 291.597,350.975 291.176,350.700 291.065 C 350.300 290.904,350.300 290.857,350.700 290.832 C 350.975 290.814,351.200 290.519,351.200 290.176 C 351.200 289.833,351.020 289.664,350.800 289.800 C 350.564 289.946,350.400 289.497,350.400 288.704 C 350.400 287.965,350.226 287.186,350.013 286.973 C 349.801 286.761,349.583 286.005,349.528 285.293 C 349.474 284.582,349.277 284.000,349.090 284.000 C 348.903 284.000,348.782 283.685,348.821 283.300 C 348.948 282.048,348.808 281.548,348.400 281.800 C 348.172 281.941,348.000 281.595,348.000 280.995 C 348.000 280.416,347.730 279.673,347.400 279.343 C 346.867 278.810,346.800 278.857,346.800 279.771 M353.043 304.233 C 352.692 305.146,352.755 306.910,353.161 307.551 C 353.672 308.357,354.401 307.721,354.394 306.476 C 354.389 305.634,354.303 305.531,354.000 306.000 C 353.591 306.633,353.414 305.921,353.579 304.300 C 353.668 303.428,353.366 303.390,353.043 304.233 M354.041 310.200 C 354.012 310.860,353.900 311.850,353.790 312.400 C 353.608 313.317,353.627 313.309,354.030 312.298 C 354.297 311.626,354.650 311.304,354.934 311.474 C 355.285 311.685,355.288 311.612,354.943 311.177 C 354.692 310.860,354.398 310.240,354.289 309.800 C 354.150 309.232,354.078 309.348,354.041 310.200 M353.607 356.746 C 353.589 399.901,353.591 400.000,354.398 400.000 C 355.337 400.000,355.696 318.079,354.761 316.953 C 354.528 316.672,354.244 315.847,354.131 315.121 C 354.018 314.394,353.857 313.731,353.775 313.646 C 353.693 313.561,353.617 332.956,353.607 356.746 " stroke="none" fill="#048cfc" fill-rule="evenodd"></path><path id="path4" d="" stroke="none" fill="#08a4fc" fill-rule="evenodd"></path></g></svg>